<svg width="24" height="24" viewBox="0 0 24 24" fill="none" xmlns="http://www.w3.org/2000/svg">
<path d="M4.56649 10.7509H20.2175C20.425 10.7509 20.624 10.83 20.7708 10.9706C20.9176 11.1113 21 11.302 21 11.5009C21 11.6999 20.9176 11.8906 20.7708 12.0313C20.624 12.1719 20.425 12.2509 20.2175 12.2509H4.56649C4.35895 12.2509 4.15991 12.1719 4.01315 12.0313C3.86639 11.8906 3.78395 11.6999 3.78395 11.5009C3.78395 11.302 3.86639 11.1113 4.01315 10.9706C4.15991 10.83 4.35895 10.7509 4.56649 10.7509Z" fill="#707070"/>
<path d="M4.89047 11.5009L11.3809 17.7199C11.5279 17.8608 11.6104 18.0518 11.6104 18.2509C11.6104 18.4501 11.5279 18.6411 11.3809 18.7819C11.234 18.9228 11.0347 19.0019 10.8269 19.0019C10.6191 19.0019 10.4198 18.9228 10.2728 18.7819L3.2299 12.0319C3.15703 11.9623 3.09921 11.8795 3.05976 11.7884C3.02031 11.6973 3 11.5996 3 11.5009C3 11.4023 3.02031 11.3046 3.05976 11.2135C3.09921 11.1224 3.15703 11.0396 3.2299 10.9699L10.2728 4.21995C10.4198 4.07912 10.6191 4 10.8269 4C11.0347 4 11.234 4.07912 11.3809 4.21995C11.5279 4.36078 11.6104 4.55178 11.6104 4.75095C11.6104 4.95011 11.5279 5.14112 11.3809 5.28195L4.89047 11.5009Z" fill="#707070"/>
<path d="M4.56649 10.7509H20.2175C20.425 10.7509 20.624 10.83 20.7708 10.9706C20.9176 11.1113 21 11.302 21 11.5009C21 11.6999 20.9176 11.8906 20.7708 12.0313C20.624 12.1719 20.425 12.2509 20.2175 12.2509H4.56649C4.35895 12.2509 4.15991 12.1719 4.01315 12.0313C3.86639 11.8906 3.78395 11.6999 3.78395 11.5009C3.78395 11.302 3.86639 11.1113 4.01315 10.9706C4.15991 10.83 4.35895 10.7509 4.56649 10.7509Z" stroke="#707070" stroke-width="0.4"/>
<path d="M4.89047 11.5009L11.3809 17.7199C11.5279 17.8608 11.6104 18.0518 11.6104 18.2509C11.6104 18.4501 11.5279 18.6411 11.3809 18.7819C11.234 18.9228 11.0347 19.0019 10.8269 19.0019C10.6191 19.0019 10.4198 18.9228 10.2728 18.7819L3.2299 12.0319C3.15703 11.9623 3.09921 11.8795 3.05976 11.7884C3.02031 11.6973 3 11.5996 3 11.5009C3 11.4023 3.02031 11.3046 3.05976 11.2135C3.09921 11.1224 3.15703 11.0396 3.2299 10.9699L10.2728 4.21995C10.4198 4.07912 10.6191 4 10.8269 4C11.0347 4 11.234 4.07912 11.3809 4.21995C11.5279 4.36078 11.6104 4.55178 11.6104 4.75095C11.6104 4.95011 11.5279 5.14112 11.3809 5.28195L4.89047 11.5009Z" stroke="#707070" stroke-width="0.4"/>
</svg>
