<svg width="84" height="14" viewBox="0 0 84 14" fill="none" xmlns="http://www.w3.org/2000/svg">
<path d="M11.2682 10.8227C11.2933 10.6771 11.4001 10.6043 11.5885 10.6043C11.7895 10.6043 11.89 10.6638 11.89 10.783L11.7392 13.5433C11.7392 13.6492 11.6388 13.7021 11.4378 13.7021C11.2493 13.7021 11.1551 13.6492 11.1551 13.5433V13.0667C9.92403 13.583 8.71807 13.8411 7.53724 13.8411C5.37656 13.8411 3.58019 13.2719 2.14811 12.1333C0.716037 10.9816 0 9.39291 0 7.36738C0 5.84492 0.376862 4.51442 1.13059 3.37589C1.88431 2.22411 2.83903 1.37683 3.99474 0.834043C5.15044 0.278014 6.33128 0 7.53724 0C8.75576 0 9.84237 0.258156 10.7971 0.774468V0.31773C10.7971 0.198581 10.885 0.139007 11.0609 0.139007C11.2493 0.139007 11.3435 0.198581 11.3435 0.31773C11.3435 1.39007 11.4064 2.36974 11.532 3.25674C11.5571 3.38912 11.4629 3.45532 11.2493 3.45532C11.0358 3.45532 10.9227 3.38912 10.9101 3.25674L10.7594 2.3234C9.77956 1.37021 8.60501 0.893616 7.23575 0.893616C5.87905 0.893616 4.72333 1.42317 3.76862 2.48227C2.8139 3.52813 2.33654 5.01749 2.33654 6.95035C2.33654 8.86998 2.83903 10.3527 3.84399 11.3986C4.86152 12.4312 6.13029 12.9475 7.6503 12.9475C8.88138 12.9475 10.0496 12.5504 11.1551 11.756L11.2682 10.8227Z" fill="#3D3D3D"/>
<path d="M14.3361 3.99149L16.2581 4.03121H20.1586V3.71347C20.1586 3.63404 20.2402 3.59433 20.4035 3.59433C20.5794 3.59433 20.6673 3.63404 20.6673 3.71347C20.6673 4.75934 20.7113 5.50733 20.7992 5.95745C20.8244 6.03688 20.7553 6.07659 20.592 6.07659C20.3784 6.07659 20.2716 6.03688 20.2716 5.95745C20.0958 5.34846 19.9262 5.00426 19.7629 4.92482C19.2353 4.72624 18.469 4.62695 17.464 4.62695C17.2881 4.64019 17.1688 4.69314 17.106 4.78582C17.0432 4.87849 17.0118 5.04397 17.0118 5.28227V8.53901C18.5318 8.48605 19.3672 8.41324 19.5179 8.32057L19.6498 7.48652C19.6749 7.42033 19.7629 7.38723 19.9136 7.38723C20.0769 7.38723 20.1586 7.43357 20.1586 7.52624C20.1083 7.91016 20.0832 8.34043 20.0832 8.81702C20.0832 9.28038 20.1083 9.70402 20.1586 10.0879C20.1586 10.1674 20.0706 10.2071 19.8948 10.2071C19.7315 10.2071 19.6498 10.1806 19.6498 10.1277L19.4991 9.27376C19.3483 9.18109 18.5192 9.10827 17.0118 9.05532V11.4582C17.0118 12.4511 17.1374 12.9475 17.3886 12.9475H17.9916C19.3734 12.921 20.3282 12.7158 20.8558 12.3319L20.95 11.5574C20.9751 11.478 21.0379 11.4383 21.1384 11.4383C21.2515 11.4383 21.3268 11.4383 21.3645 11.4383C21.4399 11.4648 21.4776 11.5045 21.4776 11.5574C21.4022 12.1135 21.3645 12.8946 21.3645 13.9007C21.3645 13.9669 21.2766 14 21.1007 14C20.9374 14 20.8558 13.9669 20.8558 13.9007V13.583H17.5017L14.2984 13.6227C14.2104 13.6227 14.1665 13.5234 14.1665 13.3248C14.1665 13.1262 14.2042 13.0269 14.2795 13.0269H15.1275C15.2657 13.0269 15.3473 13.0005 15.3724 12.9475C15.3976 12.8813 15.4101 12.7158 15.4101 12.4511V6.19574C15.4101 5.13664 15.2845 4.60709 15.0333 4.60709H14.3549C14.2042 4.60709 14.1288 4.5078 14.1288 4.30922C14.1288 4.0974 14.1979 3.99149 14.3361 3.99149Z" fill="#3D3D3D"/>
<path d="M25.6993 13.583L23.6831 13.6227C23.5952 13.6227 23.5512 13.5234 23.5512 13.3248C23.5512 13.1262 23.5826 13.0269 23.6454 13.0269H24.5687C24.7195 13.0269 24.7949 12.9144 24.7949 12.6894V6.17589C24.7949 5.13002 24.6567 4.60709 24.3803 4.60709H23.7208C23.5826 4.60709 23.5135 4.5078 23.5135 4.30922C23.5135 4.0974 23.5701 3.99149 23.6831 3.99149C24.8011 4.01797 25.9443 4.03121 27.1126 4.03121C28.2808 4.03121 29.1853 4.29598 29.826 4.82553C30.4792 5.34184 30.8058 5.98392 30.8058 6.75177C30.8058 7.50638 30.5483 8.11537 30.0332 8.57872C29.5182 9.04208 28.8964 9.30686 28.1678 9.37305C28.5321 9.63782 29.0031 10.1674 29.581 10.9617C29.7946 11.2662 30.1275 11.617 30.5797 12.0142C31.0319 12.3981 31.5407 12.7423 32.106 13.0468C31.8547 13.5764 31.4716 13.8411 30.9565 13.8411C30.4415 13.8411 29.9893 13.6426 29.5998 13.2454C29.2104 12.8482 28.9089 12.4113 28.6954 11.9348C28.4818 11.4449 28.2431 10.9418 27.9793 10.4255C27.7281 9.90922 27.4894 9.57163 27.2633 9.41277L26.3965 9.35319V11.6567C26.3965 12.5305 26.5221 12.9674 26.7734 12.9674H27.5648C27.6653 12.9674 27.7155 13.0733 27.7155 13.2851C27.7155 13.4837 27.6841 13.583 27.6213 13.583H25.6993ZM26.7734 4.62695C26.5221 4.62695 26.3965 4.84539 26.3965 5.28227V8.57872C26.5724 8.61844 26.7483 8.6383 26.9241 8.6383C27.4894 8.6383 27.9793 8.47281 28.3939 8.14184C28.8084 7.81087 29.0157 7.36076 29.0157 6.79149C29.0157 6.22222 28.8273 5.71915 28.4504 5.28227C28.0861 4.84539 27.5271 4.62695 26.7734 4.62695Z" fill="#3D3D3D"/>
<path d="M42.1729 6.11631C42.1729 6.19574 42.085 6.23546 41.9091 6.23546C41.7458 6.23546 41.6641 6.18913 41.6641 6.09645C41.5385 5.44775 41.3501 5.09031 41.0988 5.02411C40.6466 4.9182 39.962 4.85201 39.0449 4.82553H38.6869C38.5613 4.83877 38.4985 4.94468 38.4985 5.14326V11.4582C38.4985 12.4643 38.6241 12.9674 38.8754 12.9674H39.8175C39.918 12.9674 39.9683 13.0733 39.9683 13.2851C39.9683 13.4837 39.9306 13.583 39.8552 13.583L37.6694 13.5631L35.7851 13.6227C35.6972 13.6227 35.6532 13.5234 35.6532 13.3248C35.6532 13.1262 35.6909 13.0269 35.7663 13.0269H36.6142C36.7524 13.0269 36.834 13.0005 36.8591 12.9475C36.8843 12.8813 36.8968 12.7158 36.8968 12.4511V6.41418C36.8968 5.42128 36.7838 4.89173 36.5577 4.82553C35.5401 4.82553 34.7801 4.89173 34.2776 5.02411C34.0264 5.09031 33.838 5.44775 33.7124 6.09645C33.7124 6.18913 33.6244 6.23546 33.4486 6.23546C33.2852 6.23546 33.2036 6.19574 33.2036 6.11631L33.2978 3.73333C33.2978 3.6539 33.3795 3.61418 33.5428 3.61418C33.7186 3.61418 33.8066 3.6539 33.8066 3.73333V3.99149C33.8066 3.99149 34.6294 4.00473 36.275 4.03121H37.6694C39.5788 4.03121 40.8602 4.01797 41.5134 3.99149H41.5699V3.73333C41.5699 3.6539 41.6516 3.61418 41.8149 3.61418C41.9907 3.61418 42.0787 3.6539 42.0787 3.73333L42.1729 6.11631Z" fill="#3D3D3D"/>
<path d="M44.0728 3.99149L45.5614 4.03121C45.6996 4.03121 45.8189 4.03121 45.9194 4.03121L47.8791 3.99149C47.9671 3.99149 48.011 4.09078 48.011 4.28936C48.011 4.4747 47.9608 4.56738 47.8603 4.56738H46.9935C46.8302 4.56738 46.7485 4.67329 46.7485 4.88511V11.4582C46.7485 12.4643 46.8742 12.9674 47.1254 12.9674H48.0675C48.168 12.9674 48.2183 13.0733 48.2183 13.2851C48.2183 13.4837 48.1806 13.583 48.1052 13.583L45.9194 13.5631L44.0351 13.6227C43.9472 13.6227 43.9032 13.5234 43.9032 13.3248C43.9032 13.1262 43.9409 13.0269 44.0163 13.0269H44.8642C45.0024 13.0269 45.0841 13.0005 45.1092 12.9475C45.1343 12.8813 45.1469 12.7158 45.1469 12.4511V6.19574C45.1469 5.13664 45.0212 4.60709 44.77 4.60709H44.0917C43.9409 4.60709 43.8655 4.5078 43.8655 4.30922C43.8655 4.0974 43.9346 3.99149 44.0728 3.99149Z" fill="#3D3D3D"/>
<path d="M56.9406 5.9773C56.9406 6.0435 56.8526 6.07659 56.6768 6.07659C56.5009 6.07659 56.413 6.03688 56.413 5.95745C56.2371 5.34846 56.0675 5.00426 55.9042 4.92482C55.3766 4.72624 54.5978 4.62695 53.5677 4.62695C53.3918 4.64019 53.2725 4.69314 53.2097 4.78582C53.1468 4.87849 53.1154 5.04397 53.1154 5.28227V8.53901C54.6606 8.48605 55.5085 8.41324 55.6593 8.32057L55.7912 7.48652C55.8163 7.42033 55.9042 7.38723 56.055 7.38723C56.2183 7.38723 56.2999 7.43357 56.2999 7.52624C56.2497 7.91016 56.2245 8.34043 56.2245 8.81702C56.2245 9.28038 56.2497 9.70402 56.2999 10.0879C56.2999 10.1674 56.212 10.2071 56.0361 10.2071C55.8728 10.2071 55.7912 10.1806 55.7912 10.1277L55.6404 9.27376C55.4897 9.18109 54.648 9.10827 53.1154 9.05532V11.4582C53.1154 12.4643 53.2411 12.9674 53.4923 12.9674H54.4345C54.5349 12.9674 54.5852 13.0733 54.5852 13.2851C54.5852 13.4837 54.5475 13.583 54.4721 13.583L52.2863 13.5631L50.402 13.6227C50.3141 13.6227 50.2701 13.5234 50.2701 13.3248C50.2701 13.1262 50.3078 13.0269 50.3832 13.0269H51.2311C51.3693 13.0269 51.451 13.0005 51.4761 12.9475C51.5012 12.8813 51.5138 12.7158 51.5138 12.4511V6.19574C51.5138 5.13664 51.3882 4.60709 51.1369 4.60709H50.4586C50.3078 4.60709 50.2324 4.5078 50.2324 4.30922C50.2324 4.0974 50.3015 3.99149 50.4397 3.99149L52.3617 4.03121H56.2999V3.71347C56.2999 3.63404 56.3816 3.59433 56.5449 3.59433C56.7207 3.59433 56.8087 3.63404 56.8087 3.71347L56.9406 5.9773Z" fill="#3D3D3D"/>
<path d="M58.9964 3.99149L60.485 4.03121C60.6232 4.03121 60.7425 4.03121 60.843 4.03121L62.8027 3.99149C62.8906 3.99149 62.9346 4.09078 62.9346 4.28936C62.9346 4.4747 62.8843 4.56738 62.7839 4.56738H61.9171C61.7538 4.56738 61.6721 4.67329 61.6721 4.88511V11.4582C61.6721 12.4643 61.7977 12.9674 62.049 12.9674H62.9911C63.0916 12.9674 63.1419 13.0733 63.1419 13.2851C63.1419 13.4837 63.1042 13.583 63.0288 13.583L60.843 13.5631L58.9587 13.6227C58.8708 13.6227 58.8268 13.5234 58.8268 13.3248C58.8268 13.1262 58.8645 13.0269 58.9399 13.0269H59.7878C59.926 13.0269 60.0076 13.0005 60.0328 12.9475C60.0579 12.8813 60.0704 12.7158 60.0704 12.4511V6.19574C60.0704 5.13664 59.9448 4.60709 59.6936 4.60709H59.0152C58.8645 4.60709 58.7891 4.5078 58.7891 4.30922C58.7891 4.0974 58.8582 3.99149 58.9964 3.99149Z" fill="#3D3D3D"/>
<path d="M65.3633 3.99149L67.2853 4.03121H71.1858V3.71347C71.1858 3.63404 71.2675 3.59433 71.4308 3.59433C71.6066 3.59433 71.6946 3.63404 71.6946 3.71347C71.6946 4.75934 71.7385 5.50733 71.8265 5.95745C71.8516 6.03688 71.7825 6.07659 71.6192 6.07659C71.4056 6.07659 71.2989 6.03688 71.2989 5.95745C71.123 5.34846 70.9534 5.00426 70.7901 4.92482C70.2625 4.72624 69.4962 4.62695 68.4912 4.62695C68.3154 4.64019 68.196 4.69314 68.1332 4.78582C68.0704 4.87849 68.039 5.04397 68.039 5.28227V8.53901C69.559 8.48605 70.3944 8.41324 70.5451 8.32057L70.677 7.48652C70.7022 7.42033 70.7901 7.38723 70.9408 7.38723C71.1041 7.38723 71.1858 7.43357 71.1858 7.52624C71.1356 7.91016 71.1104 8.34043 71.1104 8.81702C71.1104 9.28038 71.1356 9.70402 71.1858 10.0879C71.1858 10.1674 71.0979 10.2071 70.922 10.2071C70.7587 10.2071 70.677 10.1806 70.677 10.1277L70.5263 9.27376C70.3755 9.18109 69.5465 9.10827 68.039 9.05532V11.4582C68.039 12.4511 68.1646 12.9475 68.4159 12.9475H69.0189C70.4007 12.921 71.3554 12.7158 71.883 12.3319L71.9772 11.5574C72.0023 11.478 72.0652 11.4383 72.1656 11.4383C72.2787 11.4383 72.3541 11.4383 72.3918 11.4383C72.4671 11.4648 72.5048 11.5045 72.5048 11.5574C72.4294 12.1135 72.3918 12.8946 72.3918 13.9007C72.3918 13.9669 72.3038 14 72.128 14C71.9647 14 71.883 13.9669 71.883 13.9007V13.583H68.5289L65.3256 13.6227C65.2377 13.6227 65.1937 13.5234 65.1937 13.3248C65.1937 13.1262 65.2314 13.0269 65.3068 13.0269H66.1547C66.2929 13.0269 66.3745 13.0005 66.3997 12.9475C66.4248 12.8813 66.4373 12.7158 66.4373 12.4511V6.19574C66.4373 5.13664 66.3117 4.60709 66.0605 4.60709H65.3821C65.2314 4.60709 65.156 4.5078 65.156 4.30922C65.156 4.0974 65.2251 3.99149 65.3633 3.99149Z" fill="#3D3D3D"/>
<path d="M76.7266 13.583L74.7104 13.6227C74.6224 13.6227 74.5785 13.5234 74.5785 13.3248C74.5785 13.1262 74.6099 13.0269 74.6727 13.0269H75.596C75.7467 13.0269 75.8221 12.9144 75.8221 12.6894V6.17589C75.8221 5.13002 75.6839 4.60709 75.4075 4.60709H74.748C74.6099 4.60709 74.5408 4.5078 74.5408 4.30922C74.5408 4.0974 74.5973 3.99149 74.7104 3.99149C75.3636 4.01797 76.0231 4.03121 76.6889 4.03121H78.5167C80.1497 4.03121 81.4687 4.50118 82.4737 5.44113C83.4912 6.36785 84 7.52624 84 8.91631C84 10.3064 83.5038 11.4317 82.5114 12.2922C81.5315 13.1527 80.2879 13.583 78.7805 13.583H76.7266ZM77.876 4.62695C77.5745 4.62695 77.4238 4.81891 77.4238 5.20284V11.3986C77.4238 12.4312 77.5557 12.9475 77.8195 12.9475H78.4978C79.6535 12.9475 80.5391 12.6033 81.1547 11.9149C81.7828 11.2265 82.0968 10.2667 82.0968 9.03546C82.0968 7.79102 81.7577 6.75839 81.0793 5.93759C80.401 5.11678 79.352 4.6799 77.9325 4.62695C77.9074 4.62695 77.8886 4.62695 77.876 4.62695Z" fill="#3D3D3D"/>
</svg>
