<svg width="256" height="364" viewBox="0 0 256 364" fill="none" xmlns="http://www.w3.org/2000/svg">
<path d="M0 4.99999C0 2.23857 2.23858 0 5 0H251C253.761 0 256 2.23858 256 5V359C256 361.761 253.761 364 251 364H5C2.23858 364 0 361.761 0 359V4.99999Z" fill="#F5F5F5"/>
<rect x="123.5" y="34" width="94" height="29" rx="3" fill="#31A246"/>
<path d="M53.9536 51.664C53.9856 51.488 54.1216 51.4 54.3616 51.4C54.6176 51.4 54.7456 51.472 54.7456 51.616L54.5536 54.952C54.5536 55.08 54.4256 55.144 54.1696 55.144C53.9296 55.144 53.8096 55.08 53.8096 54.952V54.376C52.2416 55 50.7056 55.312 49.2016 55.312C46.4496 55.312 44.1616 54.624 42.3376 53.248C40.5136 51.856 39.6016 49.936 39.6016 47.488C39.6016 45.648 40.0816 44.04 41.0416 42.664C42.0016 41.272 43.2176 40.248 44.6896 39.592C46.1616 38.92 47.6656 38.584 49.2016 38.584C50.7536 38.584 52.1376 38.896 53.3536 39.52V38.968C53.3536 38.824 53.4656 38.752 53.6896 38.752C53.9296 38.752 54.0496 38.824 54.0496 38.968C54.0496 40.264 54.1296 41.448 54.2896 42.52C54.3216 42.68 54.2016 42.76 53.9296 42.76C53.6576 42.76 53.5136 42.68 53.4976 42.52L53.3056 41.392C52.0576 40.24 50.5616 39.664 48.8176 39.664C47.0896 39.664 45.6176 40.304 44.4016 41.584C43.1856 42.848 42.5776 44.648 42.5776 46.984C42.5776 49.304 43.2176 51.096 44.4976 52.36C45.7936 53.608 47.4096 54.232 49.3456 54.232C50.9136 54.232 52.4016 53.752 53.8096 52.792L53.9536 51.664Z" fill="#2C2C2C"/>
<path d="M57.1351 55L55.2391 55.048C55.1271 55.048 55.0711 54.944 55.0711 54.736C55.0711 54.528 55.1271 54.424 55.2391 54.424H56.0071C56.1831 54.424 56.3111 54.352 56.3911 54.208C56.7591 53.6 57.4951 51.984 58.5991 49.36C59.7031 46.72 60.4951 44.72 60.9751 43.36C61.0391 43.216 61.1911 43.144 61.4311 43.144C61.6871 43.144 61.8471 43.224 61.9111 43.384C62.1031 44.184 62.6631 45.696 63.5911 47.92C64.5351 50.144 65.3591 52 66.0631 53.488C66.2551 53.872 66.4311 54.12 66.5911 54.232C66.7511 54.344 66.9991 54.4 67.3351 54.4C67.4311 54.4 67.4791 54.512 67.4791 54.736C67.4791 54.944 67.4391 55.048 67.3591 55.048L65.0551 55L62.4631 55.048C62.3671 55.048 62.3191 54.944 62.3191 54.736C62.3191 54.528 62.3671 54.424 62.4631 54.424H63.6151C63.7911 54.424 63.8791 54.352 63.8791 54.208C63.8791 54.192 63.4311 52.96 62.5351 50.512H59.1991C58.4151 52.448 58.0231 53.584 58.0231 53.92C58.0231 54.24 58.1191 54.4 58.3111 54.4H59.2951C59.4231 54.4 59.4871 54.512 59.4871 54.736C59.4871 54.944 59.4391 55.048 59.3431 55.048L57.1351 55ZM62.2231 49.696C62.1751 49.552 61.7591 48.336 60.9751 46.048H60.9031C60.5191 47.152 60.0631 48.368 59.5351 49.696H62.2231Z" fill="#2C2C2C"/>
<path d="M71.1857 55L68.6178 55.048C68.5058 55.048 68.4498 54.928 68.4498 54.688C68.4498 54.448 68.4897 54.328 68.5697 54.328H69.7458C69.9377 54.328 70.0338 54.192 70.0338 53.92V46.048C70.0338 44.784 69.8577 44.152 69.5058 44.152H68.6658C68.4897 44.152 68.4018 44.032 68.4018 43.792C68.4018 43.536 68.4738 43.408 68.6178 43.408C70.0417 43.44 71.4978 43.456 72.9858 43.456C74.4738 43.456 75.6257 43.776 76.4417 44.416C77.2738 45.04 77.6898 45.816 77.6898 46.744C77.6898 47.656 77.3617 48.392 76.7057 48.952C76.0498 49.512 75.2578 49.832 74.3298 49.912C74.7938 50.232 75.3937 50.872 76.1297 51.832C76.4017 52.2 76.8257 52.624 77.4017 53.104C77.9777 53.568 78.6257 53.984 79.3457 54.352C79.0257 54.992 78.5378 55.312 77.8818 55.312C77.2258 55.312 76.6497 55.072 76.1538 54.592C75.6578 54.112 75.2738 53.584 75.0018 53.008C74.7298 52.416 74.4257 51.808 74.0897 51.184C73.7697 50.56 73.4658 50.152 73.1777 49.96L72.0737 49.888V52.672C72.0737 53.728 72.2337 54.256 72.5537 54.256H73.5617C73.6897 54.256 73.7537 54.384 73.7537 54.64C73.7537 54.88 73.7138 55 73.6338 55H71.1857ZM72.5537 44.176C72.2337 44.176 72.0737 44.44 72.0737 44.968V48.952C72.2977 49 72.5218 49.024 72.7458 49.024C73.4658 49.024 74.0898 48.824 74.6178 48.424C75.1458 48.024 75.4098 47.48 75.4098 46.792C75.4098 46.104 75.1698 45.496 74.6898 44.968C74.2257 44.44 73.5137 44.176 72.5537 44.176Z" fill="#2C2C2C"/>
<path d="M83.1857 55L80.6177 55.048C80.5057 55.048 80.4497 54.928 80.4497 54.688C80.4497 54.448 80.4897 54.328 80.5698 54.328H81.7458C81.9378 54.328 82.0337 54.192 82.0337 53.92V46.048C82.0337 44.784 81.8577 44.152 81.5057 44.152H80.6657C80.4897 44.152 80.4017 44.032 80.4017 43.792C80.4017 43.536 80.4737 43.408 80.6177 43.408C82.0417 43.44 83.4897 43.456 84.9618 43.456C86.4338 43.456 87.5698 43.744 88.3698 44.32C89.1858 44.896 89.5938 45.592 89.5938 46.408C89.5938 47 89.3218 47.536 88.7778 48.016C88.2498 48.496 87.6178 48.808 86.8818 48.952V49C87.9378 49.192 88.8018 49.568 89.4738 50.128C90.1618 50.672 90.5057 51.328 90.5057 52.096C90.5057 52.848 90.0257 53.52 89.0658 54.112C88.1058 54.704 86.8577 55 85.3218 55H83.1857ZM87.9378 51.976C87.9378 50.408 86.6497 49.552 84.0737 49.408V52.672C84.0737 53.712 84.2337 54.232 84.5537 54.232H85.2018C86.0818 54.232 86.7537 54.024 87.2178 53.608C87.6978 53.192 87.9378 52.648 87.9378 51.976ZM84.5537 44.176C84.2337 44.176 84.0737 44.44 84.0737 44.968V48.544C84.2497 48.576 84.5137 48.592 84.8657 48.592C85.6497 48.592 86.2578 48.392 86.6898 47.992C87.1217 47.592 87.3377 47.096 87.3377 46.504C87.3377 45.896 87.1138 45.36 86.6658 44.896C86.2178 44.416 85.5137 44.176 84.5537 44.176Z" fill="#2C2C2C"/>
<path d="M94.7671 44.944C96.0631 43.744 97.5671 43.144 99.2791 43.144C100.991 43.144 102.487 43.744 103.767 44.944C105.063 46.144 105.711 47.568 105.711 49.216C105.711 50.848 105.063 52.272 103.767 53.488C102.487 54.704 100.991 55.312 99.2791 55.312C97.5671 55.312 96.0631 54.704 94.7671 53.488C93.4871 52.272 92.8471 50.848 92.8471 49.216C92.8471 47.568 93.4871 46.144 94.7671 44.944ZM102.183 45.52C101.431 44.512 100.463 44.008 99.2791 44.008C98.0951 44.008 97.1271 44.512 96.3751 45.52C95.6231 46.512 95.2471 47.744 95.2471 49.216C95.2471 50.672 95.6231 51.912 96.3751 52.936C97.1271 53.944 98.0951 54.448 99.2791 54.448C100.463 54.448 101.431 53.944 102.183 52.936C102.935 51.912 103.311 50.672 103.311 49.216C103.311 47.744 102.935 46.512 102.183 45.52Z" fill="#2C2C2C"/>
<path d="M118.606 43.456L120.814 43.408C120.91 43.408 120.958 43.528 120.958 43.768C120.958 43.992 120.91 44.104 120.814 44.104H119.974C119.75 44.104 119.606 44.16 119.542 44.272C119.254 44.768 119.11 48.368 119.11 55.072C119.11 55.232 118.974 55.312 118.702 55.312C118.446 55.312 118.262 55.256 118.15 55.144C114.95 51.336 112.374 48.248 110.422 45.88H110.35C110.398 48.712 110.446 51.08 110.494 52.984C110.494 53.816 110.614 54.232 110.854 54.232H111.814C111.91 54.232 111.958 54.36 111.958 54.616C111.958 54.856 111.91 54.976 111.814 54.976H109.822L107.638 55.024C107.558 55.024 107.518 54.912 107.518 54.688C107.518 54.448 107.558 54.328 107.638 54.328H108.214C108.71 54.328 108.966 54.168 108.982 53.848C109.222 51.256 109.342 48.224 109.342 44.752C109.086 44.448 108.87 44.272 108.694 44.224C108.518 44.176 108.19 44.152 107.71 44.152C107.614 44.152 107.566 44.032 107.566 43.792C107.566 43.536 107.614 43.408 107.71 43.408L111.094 43.456C114.982 48.384 117.27 51.304 117.958 52.216H118.006C117.942 48.024 117.886 45.632 117.838 45.04C117.79 44.448 117.662 44.152 117.454 44.152H116.614C116.502 44.152 116.446 44.032 116.446 43.792C116.446 43.536 116.502 43.408 116.614 43.408L118.606 43.456Z" fill="#2C2C2C"/>
<path d="M143.391 51.664C143.423 51.488 143.559 51.4 143.799 51.4C144.055 51.4 144.183 51.472 144.183 51.616L143.991 54.952C143.991 55.08 143.863 55.144 143.607 55.144C143.367 55.144 143.247 55.08 143.247 54.952V54.376C141.679 55 140.143 55.312 138.639 55.312C135.887 55.312 133.599 54.624 131.775 53.248C129.951 51.856 129.039 49.936 129.039 47.488C129.039 45.648 129.519 44.04 130.479 42.664C131.439 41.272 132.655 40.248 134.127 39.592C135.599 38.92 137.103 38.584 138.639 38.584C140.191 38.584 141.575 38.896 142.791 39.52V38.968C142.791 38.824 142.903 38.752 143.127 38.752C143.367 38.752 143.487 38.824 143.487 38.968C143.487 40.264 143.567 41.448 143.727 42.52C143.759 42.68 143.639 42.76 143.367 42.76C143.095 42.76 142.951 42.68 142.935 42.52L142.743 41.392C141.495 40.24 139.999 39.664 138.255 39.664C136.527 39.664 135.055 40.304 133.839 41.584C132.623 42.848 132.015 44.648 132.015 46.984C132.015 49.304 132.655 51.096 133.935 52.36C135.231 53.608 136.847 54.232 138.783 54.232C140.351 54.232 141.839 53.752 143.247 52.792L143.391 51.664Z" fill="white"/>
<path d="M146.549 43.408L148.997 43.456H153.965V43.072C153.965 42.976 154.069 42.928 154.277 42.928C154.501 42.928 154.613 42.976 154.613 43.072C154.613 44.336 154.669 45.24 154.781 45.784C154.813 45.88 154.725 45.928 154.517 45.928C154.245 45.928 154.109 45.88 154.109 45.784C153.885 45.048 153.669 44.632 153.461 44.536C152.789 44.296 151.813 44.176 150.533 44.176C150.309 44.192 150.157 44.256 150.077 44.368C149.997 44.48 149.957 44.68 149.957 44.968V48.904C151.893 48.84 152.957 48.752 153.149 48.64L153.317 47.632C153.349 47.552 153.461 47.512 153.653 47.512C153.861 47.512 153.965 47.568 153.965 47.68C153.901 48.144 153.869 48.664 153.869 49.24C153.869 49.8 153.901 50.312 153.965 50.776C153.965 50.872 153.853 50.92 153.629 50.92C153.421 50.92 153.317 50.888 153.317 50.824L153.125 49.792C152.933 49.68 151.877 49.592 149.957 49.528V52.432C149.957 53.632 150.117 54.232 150.437 54.232H151.205C152.965 54.2 154.181 53.952 154.853 53.488L154.973 52.552C155.005 52.456 155.085 52.408 155.213 52.408C155.357 52.408 155.453 52.408 155.501 52.408C155.597 52.44 155.645 52.488 155.645 52.552C155.549 53.224 155.501 54.168 155.501 55.384C155.501 55.464 155.389 55.504 155.165 55.504C154.957 55.504 154.853 55.464 154.853 55.384V55H150.581L146.501 55.048C146.389 55.048 146.333 54.928 146.333 54.688C146.333 54.448 146.381 54.328 146.477 54.328H147.557C147.733 54.328 147.837 54.296 147.869 54.232C147.901 54.152 147.917 53.952 147.917 53.632V46.072C147.917 44.792 147.757 44.152 147.437 44.152H146.573C146.381 44.152 146.285 44.032 146.285 43.792C146.285 43.536 146.373 43.408 146.549 43.408Z" fill="white"/>
<path d="M160.272 55L157.704 55.048C157.592 55.048 157.536 54.928 157.536 54.688C157.536 54.448 157.576 54.328 157.656 54.328H158.832C159.024 54.328 159.12 54.192 159.12 53.92V46.048C159.12 44.784 158.944 44.152 158.592 44.152H157.752C157.576 44.152 157.488 44.032 157.488 43.792C157.488 43.536 157.56 43.408 157.704 43.408C159.128 43.44 160.584 43.456 162.072 43.456C163.56 43.456 164.712 43.776 165.528 44.416C166.36 45.04 166.776 45.816 166.776 46.744C166.776 47.656 166.448 48.392 165.792 48.952C165.136 49.512 164.344 49.832 163.416 49.912C163.88 50.232 164.48 50.872 165.216 51.832C165.488 52.2 165.912 52.624 166.488 53.104C167.064 53.568 167.712 53.984 168.432 54.352C168.112 54.992 167.624 55.312 166.968 55.312C166.312 55.312 165.736 55.072 165.24 54.592C164.744 54.112 164.36 53.584 164.088 53.008C163.816 52.416 163.512 51.808 163.176 51.184C162.856 50.56 162.552 50.152 162.264 49.96L161.16 49.888V52.672C161.16 53.728 161.32 54.256 161.64 54.256H162.648C162.776 54.256 162.84 54.384 162.84 54.64C162.84 54.88 162.8 55 162.72 55H160.272ZM161.64 44.176C161.32 44.176 161.16 44.44 161.16 44.968V48.952C161.384 49 161.608 49.024 161.832 49.024C162.552 49.024 163.176 48.824 163.704 48.424C164.232 48.024 164.496 47.48 164.496 46.792C164.496 46.104 164.256 45.496 163.776 44.968C163.312 44.44 162.6 44.176 161.64 44.176Z" fill="white"/>
<path d="M180.504 45.976C180.504 46.072 180.392 46.12 180.168 46.12C179.96 46.12 179.856 46.064 179.856 45.952C179.696 45.168 179.456 44.736 179.136 44.656C178.56 44.528 177.688 44.448 176.52 44.416H176.064C175.904 44.432 175.824 44.56 175.824 44.8V52.432C175.824 53.648 175.984 54.256 176.304 54.256H177.504C177.632 54.256 177.696 54.384 177.696 54.64C177.696 54.88 177.648 55 177.552 55L174.768 54.976L172.368 55.048C172.256 55.048 172.2 54.928 172.2 54.688C172.2 54.448 172.248 54.328 172.344 54.328H173.424C173.6 54.328 173.704 54.296 173.736 54.232C173.768 54.152 173.784 53.952 173.784 53.632V46.336C173.784 45.136 173.64 44.496 173.352 44.416C172.056 44.416 171.088 44.496 170.448 44.656C170.128 44.736 169.888 45.168 169.728 45.952C169.728 46.064 169.616 46.12 169.392 46.12C169.184 46.12 169.08 46.072 169.08 45.976L169.2 43.096C169.2 43 169.304 42.952 169.512 42.952C169.736 42.952 169.848 43 169.848 43.096V43.408C169.848 43.408 170.896 43.424 172.992 43.456H174.768C177.2 43.456 178.832 43.44 179.664 43.408H179.736V43.096C179.736 43 179.84 42.952 180.048 42.952C180.272 42.952 180.384 43 180.384 43.096L180.504 45.976Z" fill="white"/>
<path d="M182.174 43.408L184.07 43.456C184.246 43.456 184.398 43.456 184.526 43.456L187.022 43.408C187.134 43.408 187.19 43.528 187.19 43.768C187.19 43.992 187.126 44.104 186.998 44.104H185.894C185.686 44.104 185.582 44.232 185.582 44.488V52.432C185.582 53.648 185.742 54.256 186.062 54.256H187.262C187.39 54.256 187.454 54.384 187.454 54.64C187.454 54.88 187.406 55 187.31 55L184.526 54.976L182.126 55.048C182.014 55.048 181.958 54.928 181.958 54.688C181.958 54.448 182.006 54.328 182.102 54.328H183.182C183.358 54.328 183.462 54.296 183.494 54.232C183.526 54.152 183.542 53.952 183.542 53.632V46.072C183.542 44.792 183.382 44.152 183.062 44.152H182.198C182.006 44.152 181.91 44.032 181.91 43.792C181.91 43.536 181.998 43.408 182.174 43.408Z" fill="white"/>
<path d="M197.813 45.808C197.813 45.888 197.701 45.928 197.477 45.928C197.253 45.928 197.141 45.88 197.141 45.784C196.917 45.048 196.701 44.632 196.493 44.536C195.821 44.296 194.829 44.176 193.517 44.176C193.293 44.192 193.141 44.256 193.061 44.368C192.981 44.48 192.941 44.68 192.941 44.968V48.904C194.909 48.84 195.989 48.752 196.181 48.64L196.349 47.632C196.381 47.552 196.493 47.512 196.685 47.512C196.893 47.512 196.997 47.568 196.997 47.68C196.933 48.144 196.901 48.664 196.901 49.24C196.901 49.8 196.933 50.312 196.997 50.776C196.997 50.872 196.885 50.92 196.661 50.92C196.453 50.92 196.349 50.888 196.349 50.824L196.157 49.792C195.965 49.68 194.893 49.592 192.941 49.528V52.432C192.941 53.648 193.101 54.256 193.421 54.256H194.621C194.749 54.256 194.813 54.384 194.813 54.64C194.813 54.88 194.765 55 194.669 55L191.885 54.976L189.485 55.048C189.373 55.048 189.317 54.928 189.317 54.688C189.317 54.448 189.365 54.328 189.461 54.328H190.541C190.717 54.328 190.821 54.296 190.853 54.232C190.885 54.152 190.901 53.952 190.901 53.632V46.072C190.901 44.792 190.741 44.152 190.421 44.152H189.557C189.365 44.152 189.269 44.032 189.269 43.792C189.269 43.536 189.357 43.408 189.533 43.408L191.981 43.456H196.997V43.072C196.997 42.976 197.101 42.928 197.309 42.928C197.533 42.928 197.645 42.976 197.645 43.072L197.813 45.808Z" fill="white"/>
<path d="M204.937 54.976L202.537 55.048C202.425 55.048 202.369 54.928 202.369 54.688C202.369 54.448 202.417 54.328 202.513 54.328H203.593C203.769 54.328 203.873 54.296 203.905 54.232C203.937 54.152 203.953 53.952 203.953 53.632V49.816H203.929C203.945 49.336 202.817 47.792 200.545 45.184C199.921 44.448 199.441 44.08 199.105 44.08H198.553C198.425 44.08 198.361 43.976 198.361 43.768C198.361 43.544 198.409 43.432 198.505 43.432L200.785 43.456L203.281 43.432C203.377 43.432 203.425 43.536 203.425 43.744C203.425 43.952 203.385 44.056 203.305 44.056H202.105C202.105 44.088 202.305 44.344 202.705 44.824C204.033 46.408 204.897 47.608 205.297 48.424H205.369C205.609 48.024 206.097 47.36 206.833 46.432C207.569 45.504 207.985 44.944 208.081 44.752C208.193 44.544 208.249 44.384 208.249 44.272C208.249 44.144 208.185 44.08 208.057 44.08H207.385C207.305 44.08 207.265 43.976 207.265 43.768C207.265 43.544 207.321 43.432 207.433 43.432L209.665 43.456L211.561 43.432C211.673 43.432 211.729 43.536 211.729 43.744C211.729 43.952 211.665 44.056 211.537 44.056H211.105C210.817 44.056 210.569 44.144 210.361 44.32C209.577 44.976 208.681 45.872 207.673 47.008C206.681 48.128 206.121 48.912 205.993 49.36V52.432C205.993 53.648 206.153 54.256 206.473 54.256H207.673C207.801 54.256 207.865 54.384 207.865 54.64C207.865 54.88 207.817 55 207.721 55L204.937 54.976Z" fill="white"/>
<path d="M98.4602 134.144C98.0122 134.144 97.6069 134.24 97.2442 134.432C96.8815 134.624 96.5722 134.901 96.3162 135.264C96.0709 135.627 95.8842 136.064 95.7562 136.576C95.6282 137.088 95.5642 137.664 95.5642 138.304C95.5642 139.168 95.6709 139.909 95.8842 140.528C96.0975 141.136 96.4229 141.605 96.8602 141.936C97.2975 142.267 97.8469 142.432 98.5082 142.432C98.9669 142.432 99.4149 142.384 99.8522 142.288C100.29 142.181 100.732 142.043 101.18 141.872V143.616C100.743 143.808 100.29 143.947 99.8202 144.032C99.3615 144.117 98.8442 144.16 98.2682 144.16C97.1482 144.16 96.2255 143.92 95.5002 143.44C94.7749 142.949 94.2309 142.267 93.8682 141.392C93.5162 140.507 93.3402 139.472 93.3402 138.288C93.3402 137.424 93.4522 136.635 93.6762 135.92C93.9002 135.205 94.2309 134.587 94.6682 134.064C95.1055 133.541 95.6442 133.136 96.2842 132.848C96.9242 132.56 97.6549 132.416 98.4762 132.416C99.0202 132.416 99.5695 132.485 100.124 132.624C100.69 132.752 101.186 132.933 101.612 133.168L100.892 134.848C100.519 134.667 100.13 134.507 99.7242 134.368C99.3295 134.219 98.9082 134.144 98.4602 134.144ZM107.146 135.168C107.893 135.168 108.533 135.328 109.066 135.648C109.61 135.957 110.031 136.405 110.33 136.992C110.629 137.568 110.778 138.272 110.778 139.104V140.128H105.466C105.487 140.917 105.679 141.531 106.042 141.968C106.415 142.395 106.938 142.608 107.61 142.608C108.143 142.608 108.618 142.555 109.034 142.448C109.45 142.331 109.882 142.165 110.33 141.952V143.568C109.925 143.771 109.503 143.92 109.066 144.016C108.629 144.112 108.09 144.16 107.45 144.16C106.639 144.16 105.919 144 105.29 143.68C104.671 143.349 104.186 142.853 103.834 142.192C103.482 141.531 103.306 140.709 103.306 139.728C103.306 138.736 103.466 137.904 103.786 137.232C104.106 136.549 104.554 136.037 105.13 135.696C105.717 135.344 106.389 135.168 107.146 135.168ZM107.178 136.656C106.698 136.656 106.309 136.832 106.01 137.184C105.722 137.525 105.551 138.037 105.498 138.72H108.762C108.762 138.315 108.703 137.957 108.586 137.648C108.469 137.339 108.293 137.099 108.058 136.928C107.834 136.747 107.541 136.656 107.178 136.656ZM117.529 135.168C117.679 135.168 117.833 135.173 117.993 135.184C118.153 135.195 118.287 135.216 118.393 135.248L118.201 137.12C118.095 137.099 117.967 137.083 117.817 137.072C117.679 137.051 117.529 137.04 117.369 137.04C117.103 137.04 116.841 137.093 116.585 137.2C116.329 137.296 116.1 137.445 115.897 137.648C115.695 137.84 115.529 138.091 115.401 138.4C115.284 138.709 115.225 139.077 115.225 139.504V144H113.097V135.328H114.729L115.017 136.832H115.129C115.289 136.523 115.487 136.245 115.721 136C115.967 135.744 116.239 135.541 116.537 135.392C116.847 135.243 117.177 135.168 117.529 135.168ZM123.677 142.544C123.911 142.544 124.135 142.523 124.349 142.48C124.573 142.427 124.781 142.368 124.973 142.304V143.808C124.749 143.904 124.477 143.984 124.157 144.048C123.837 144.123 123.479 144.16 123.085 144.16C122.594 144.16 122.157 144.08 121.773 143.92C121.389 143.749 121.085 143.461 120.861 143.056C120.647 142.651 120.541 142.085 120.541 141.36V136.848H119.453V135.968L120.669 135.264L121.309 133.424H122.653V135.328H124.893V136.848H122.653V141.344C122.653 141.749 122.743 142.053 122.925 142.256C123.117 142.448 123.367 142.544 123.677 142.544ZM129.178 135.328V144H127.066V135.328H129.178ZM128.138 131.984C128.448 131.984 128.714 132.064 128.938 132.224C129.162 132.373 129.274 132.645 129.274 133.04C129.274 133.424 129.162 133.701 128.938 133.872C128.714 134.032 128.448 134.112 128.138 134.112C127.808 134.112 127.53 134.032 127.306 133.872C127.082 133.701 126.97 133.424 126.97 133.04C126.97 132.645 127.082 132.373 127.306 132.224C127.53 132.064 127.808 131.984 128.138 131.984ZM135.444 144.16C134.644 144.16 133.951 144.005 133.364 143.696C132.788 143.376 132.34 142.891 132.02 142.24C131.711 141.579 131.556 140.736 131.556 139.712C131.556 138.645 131.727 137.781 132.068 137.12C132.42 136.448 132.9 135.957 133.508 135.648C134.127 135.328 134.825 135.168 135.604 135.168C136.095 135.168 136.553 135.221 136.98 135.328C137.417 135.435 137.78 135.563 138.068 135.712L137.428 137.264C137.14 137.147 136.852 137.045 136.564 136.96C136.276 136.875 135.988 136.832 135.7 136.832C135.263 136.832 134.9 136.939 134.612 137.152C134.324 137.365 134.1 137.685 133.94 138.112C133.791 138.528 133.716 139.056 133.716 139.696C133.716 140.315 133.791 140.832 133.94 141.248C134.1 141.664 134.324 141.979 134.612 142.192C134.9 142.395 135.252 142.496 135.668 142.496C136.084 142.496 136.468 142.437 136.82 142.32C137.183 142.203 137.524 142.043 137.844 141.84V143.584C137.513 143.787 137.161 143.931 136.788 144.016C136.415 144.112 135.967 144.16 135.444 144.16ZM143.647 135.168C144.693 135.168 145.493 135.413 146.047 135.904C146.602 136.384 146.879 137.141 146.879 138.176V144H145.391L144.975 142.8H144.911C144.677 143.109 144.437 143.371 144.191 143.584C143.946 143.787 143.663 143.931 143.343 144.016C143.023 144.112 142.639 144.16 142.191 144.16C141.711 144.16 141.279 144.064 140.895 143.872C140.511 143.68 140.207 143.387 139.983 142.992C139.759 142.587 139.647 142.08 139.647 141.472C139.647 140.576 139.957 139.904 140.575 139.456C141.194 138.997 142.122 138.747 143.359 138.704L144.751 138.656V138.224C144.751 137.669 144.634 137.275 144.399 137.04C144.165 136.805 143.845 136.688 143.439 136.688C143.055 136.688 142.666 136.752 142.271 136.88C141.887 137.008 141.509 137.157 141.135 137.328L140.479 135.92C140.917 135.696 141.402 135.515 141.935 135.376C142.469 135.237 143.039 135.168 143.647 135.168ZM143.855 139.936C143.098 139.968 142.57 140.123 142.271 140.4C141.973 140.667 141.823 141.029 141.823 141.488C141.823 141.893 141.925 142.187 142.127 142.368C142.341 142.549 142.618 142.64 142.959 142.64C143.461 142.64 143.887 142.475 144.239 142.144C144.591 141.803 144.767 141.301 144.767 140.64V139.904L143.855 139.936ZM153.021 142.544C153.255 142.544 153.479 142.523 153.693 142.48C153.917 142.427 154.125 142.368 154.317 142.304V143.808C154.093 143.904 153.821 143.984 153.501 144.048C153.181 144.123 152.823 144.16 152.429 144.16C151.938 144.16 151.501 144.08 151.117 143.92C150.733 143.749 150.429 143.461 150.205 143.056C149.991 142.651 149.885 142.085 149.885 141.36V136.848H148.797V135.968L150.013 135.264L150.653 133.424H151.997V135.328H154.237V136.848H151.997V141.344C151.997 141.749 152.087 142.053 152.269 142.256C152.461 142.448 152.711 142.544 153.021 142.544ZM159.802 135.168C160.549 135.168 161.189 135.328 161.722 135.648C162.266 135.957 162.688 136.405 162.986 136.992C163.285 137.568 163.434 138.272 163.434 139.104V140.128H158.122C158.144 140.917 158.336 141.531 158.698 141.968C159.072 142.395 159.594 142.608 160.266 142.608C160.8 142.608 161.274 142.555 161.69 142.448C162.106 142.331 162.538 142.165 162.986 141.952V143.568C162.581 143.771 162.16 143.92 161.722 144.016C161.285 144.112 160.746 144.16 160.106 144.16C159.296 144.16 158.576 144 157.946 143.68C157.328 143.349 156.842 142.853 156.49 142.192C156.138 141.531 155.962 140.709 155.962 139.728C155.962 138.736 156.122 137.904 156.442 137.232C156.762 136.549 157.21 136.037 157.786 135.696C158.373 135.344 159.045 135.168 159.802 135.168ZM159.834 136.656C159.354 136.656 158.965 136.832 158.666 137.184C158.378 137.525 158.208 138.037 158.154 138.72H161.418C161.418 138.315 161.36 137.957 161.242 137.648C161.125 137.339 160.949 137.099 160.714 136.928C160.49 136.747 160.197 136.656 159.834 136.656ZM59.3736 163.648C59.3736 164.373 59.283 165.013 59.1016 165.568C58.9203 166.123 58.6536 166.597 58.3016 166.992C57.9603 167.376 57.5443 167.669 57.0536 167.872C56.563 168.064 56.0136 168.16 55.4056 168.16C54.8403 168.16 54.3123 168.064 53.8216 167.872C53.3416 167.669 52.9256 167.376 52.5736 166.992C52.2323 166.597 51.9656 166.123 51.7736 165.568C51.5816 165.013 51.4856 164.373 51.4856 163.648C51.4856 162.688 51.6403 161.877 51.9496 161.216C52.2696 160.544 52.7283 160.037 53.3256 159.696C53.923 159.344 54.6323 159.168 55.4536 159.168C56.2216 159.168 56.899 159.344 57.4856 159.696C58.0723 160.037 58.531 160.544 58.8616 161.216C59.203 161.877 59.3736 162.688 59.3736 163.648ZM53.6456 163.648C53.6456 164.256 53.7096 164.779 53.8376 165.216C53.9656 165.643 54.1576 165.968 54.4136 166.192C54.6803 166.416 55.0216 166.528 55.4376 166.528C55.8536 166.528 56.1896 166.416 56.4456 166.192C56.7123 165.968 56.9043 165.643 57.0216 165.216C57.1496 164.779 57.2136 164.256 57.2136 163.648C57.2136 163.029 57.1496 162.512 57.0216 162.096C56.8936 161.669 56.6963 161.349 56.4296 161.136C56.1736 160.912 55.8376 160.8 55.4216 160.8C54.7923 160.8 54.339 161.045 54.0616 161.536C53.7843 162.027 53.6456 162.731 53.6456 163.648ZM66.1621 160.848H64.2421V168H62.1141V160.848H60.8661V159.888L62.1301 159.312V158.72C62.1301 157.973 62.2368 157.387 62.4501 156.96C62.6635 156.533 62.9781 156.229 63.3941 156.048C63.8101 155.856 64.3168 155.76 64.9141 155.76C65.3088 155.76 65.6661 155.797 65.9861 155.872C66.3168 155.936 66.6101 156.011 66.8661 156.096L66.3541 157.6C66.1941 157.547 66.0128 157.499 65.8101 157.456C65.6181 157.403 65.4155 157.376 65.2021 157.376C64.8715 157.376 64.6261 157.499 64.4661 157.744C64.3168 157.989 64.2421 158.331 64.2421 158.768V159.328H66.1621V160.848ZM77.1711 158.144C76.7231 158.144 76.3178 158.24 75.9551 158.432C75.5925 158.624 75.2831 158.901 75.0271 159.264C74.7818 159.627 74.5951 160.064 74.4671 160.576C74.3391 161.088 74.2751 161.664 74.2751 162.304C74.2751 163.168 74.3818 163.909 74.5951 164.528C74.8085 165.136 75.1338 165.605 75.5711 165.936C76.0085 166.267 76.5578 166.432 77.2191 166.432C77.6778 166.432 78.1258 166.384 78.5631 166.288C79.0005 166.181 79.4431 166.043 79.8911 165.872V167.616C79.4538 167.808 79.0005 167.947 78.5311 168.032C78.0725 168.117 77.5551 168.16 76.9791 168.16C75.8591 168.16 74.9365 167.92 74.2111 167.44C73.4858 166.949 72.9418 166.267 72.5791 165.392C72.2271 164.507 72.0511 163.472 72.0511 162.288C72.0511 161.424 72.1631 160.635 72.3871 159.92C72.6111 159.205 72.9418 158.587 73.3791 158.064C73.8165 157.541 74.3551 157.136 74.9951 156.848C75.6351 156.56 76.3658 156.416 77.1871 156.416C77.7311 156.416 78.2805 156.485 78.8351 156.624C79.4005 156.752 79.8965 156.933 80.3231 157.168L79.6031 158.848C79.2298 158.667 78.8405 158.507 78.4351 158.368C78.0405 158.219 77.6191 158.144 77.1711 158.144ZM85.9209 159.168C86.9662 159.168 87.7662 159.413 88.3209 159.904C88.8755 160.384 89.1529 161.141 89.1529 162.176V168H87.6649L87.2489 166.8H87.1849C86.9502 167.109 86.7102 167.371 86.4649 167.584C86.2195 167.787 85.9369 167.931 85.6169 168.016C85.2969 168.112 84.9129 168.16 84.4649 168.16C83.9849 168.16 83.5529 168.064 83.1689 167.872C82.7849 167.68 82.4809 167.387 82.2569 166.992C82.0329 166.587 81.9209 166.08 81.9209 165.472C81.9209 164.576 82.2302 163.904 82.8489 163.456C83.4675 162.997 84.3955 162.747 85.6329 162.704L87.0249 162.656V162.224C87.0249 161.669 86.9075 161.275 86.6729 161.04C86.4382 160.805 86.1182 160.688 85.7129 160.688C85.3289 160.688 84.9395 160.752 84.5449 160.88C84.1609 161.008 83.7822 161.157 83.4089 161.328L82.7529 159.92C83.1902 159.696 83.6755 159.515 84.2089 159.376C84.7422 159.237 85.3129 159.168 85.9209 159.168ZM86.1289 163.936C85.3715 163.968 84.8435 164.123 84.5449 164.4C84.2462 164.667 84.0969 165.029 84.0969 165.488C84.0969 165.893 84.1982 166.187 84.4009 166.368C84.6142 166.549 84.8915 166.64 85.2329 166.64C85.7342 166.64 86.1609 166.475 86.5129 166.144C86.8649 165.803 87.0409 165.301 87.0409 164.64V163.904L86.1289 163.936ZM96.334 159.168C96.4833 159.168 96.638 159.173 96.798 159.184C96.958 159.195 97.0913 159.216 97.198 159.248L97.006 161.12C96.8993 161.099 96.7713 161.083 96.622 161.072C96.4833 161.051 96.334 161.04 96.174 161.04C95.9073 161.04 95.646 161.093 95.39 161.2C95.134 161.296 94.9047 161.445 94.702 161.648C94.4993 161.84 94.334 162.091 94.206 162.4C94.0887 162.709 94.03 163.077 94.03 163.504V168H91.902V159.328H93.534L93.822 160.832H93.934C94.094 160.523 94.2913 160.245 94.526 160C94.7713 159.744 95.0433 159.541 95.342 159.392C95.6513 159.243 95.982 159.168 96.334 159.168ZM101.202 158.72C101.202 159.061 101.191 159.392 101.17 159.712C101.159 160.032 101.143 160.283 101.122 160.464H101.202C101.426 160.101 101.724 159.797 102.098 159.552C102.471 159.296 102.962 159.168 103.57 159.168C104.487 159.168 105.234 159.547 105.81 160.304C106.396 161.061 106.69 162.176 106.69 163.648C106.69 164.64 106.556 165.472 106.29 166.144C106.034 166.816 105.666 167.323 105.186 167.664C104.706 167.995 104.146 168.16 103.506 168.16C102.908 168.16 102.428 168.043 102.066 167.808C101.714 167.573 101.426 167.301 101.202 166.992H101.058L100.706 168H99.0895V155.84H101.202V158.72ZM102.898 160.8C102.492 160.8 102.167 160.896 101.922 161.088C101.676 161.28 101.495 161.573 101.378 161.968C101.271 162.363 101.218 162.864 101.218 163.472V163.648C101.218 164.576 101.34 165.285 101.586 165.776C101.831 166.267 102.284 166.512 102.946 166.512C103.458 166.512 103.847 166.267 104.114 165.776C104.391 165.275 104.53 164.56 104.53 163.632C104.53 162.693 104.391 161.989 104.114 161.52C103.847 161.04 103.442 160.8 102.898 160.8ZM116.514 163.648C116.514 164.373 116.424 165.013 116.242 165.568C116.061 166.123 115.794 166.597 115.442 166.992C115.101 167.376 114.685 167.669 114.194 167.872C113.704 168.064 113.154 168.16 112.546 168.16C111.981 168.16 111.453 168.064 110.962 167.872C110.482 167.669 110.066 167.376 109.714 166.992C109.373 166.597 109.106 166.123 108.914 165.568C108.722 165.013 108.626 164.373 108.626 163.648C108.626 162.688 108.781 161.877 109.09 161.216C109.41 160.544 109.869 160.037 110.466 159.696C111.064 159.344 111.773 159.168 112.594 159.168C113.362 159.168 114.04 159.344 114.626 159.696C115.213 160.037 115.672 160.544 116.002 161.216C116.344 161.877 116.514 162.688 116.514 163.648ZM110.786 163.648C110.786 164.256 110.85 164.779 110.978 165.216C111.106 165.643 111.298 165.968 111.554 166.192C111.821 166.416 112.162 166.528 112.578 166.528C112.994 166.528 113.33 166.416 113.586 166.192C113.853 165.968 114.045 165.643 114.162 165.216C114.29 164.779 114.354 164.256 114.354 163.648C114.354 163.029 114.29 162.512 114.162 162.096C114.034 161.669 113.837 161.349 113.57 161.136C113.314 160.912 112.978 160.8 112.562 160.8C111.933 160.8 111.48 161.045 111.202 161.536C110.925 162.027 110.786 162.731 110.786 163.648ZM123.431 159.168C124.337 159.168 125.052 159.419 125.575 159.92C126.097 160.421 126.359 161.232 126.359 162.352V168H124.231V162.752C124.231 162.101 124.119 161.616 123.895 161.296C123.671 160.965 123.319 160.8 122.839 160.8C122.124 160.8 121.639 161.056 121.383 161.568C121.127 162.069 120.999 162.8 120.999 163.76V168H118.871V159.328H120.503L120.807 160.464H120.887C121.079 160.165 121.303 159.92 121.559 159.728C121.815 159.536 122.103 159.397 122.423 159.312C122.743 159.216 123.079 159.168 123.431 159.168ZM136.935 159.168C137.682 159.168 138.322 159.328 138.855 159.648C139.399 159.957 139.82 160.405 140.119 160.992C140.418 161.568 140.567 162.272 140.567 163.104V164.128H135.255C135.276 164.917 135.468 165.531 135.831 165.968C136.204 166.395 136.727 166.608 137.399 166.608C137.932 166.608 138.407 166.555 138.823 166.448C139.239 166.331 139.671 166.165 140.119 165.952V167.568C139.714 167.771 139.292 167.92 138.855 168.016C138.418 168.112 137.879 168.16 137.239 168.16C136.428 168.16 135.708 168 135.079 167.68C134.46 167.349 133.975 166.853 133.623 166.192C133.271 165.531 133.095 164.709 133.095 163.728C133.095 162.736 133.255 161.904 133.575 161.232C133.895 160.549 134.343 160.037 134.919 159.696C135.506 159.344 136.178 159.168 136.935 159.168ZM136.967 160.656C136.487 160.656 136.098 160.832 135.799 161.184C135.511 161.525 135.34 162.037 135.287 162.72H138.551C138.551 162.315 138.492 161.957 138.375 161.648C138.258 161.339 138.082 161.099 137.847 160.928C137.623 160.747 137.33 160.656 136.967 160.656ZM152.406 159.168C153.345 159.168 154.049 159.419 154.518 159.92C154.988 160.421 155.222 161.232 155.222 162.352V168H153.126V162.736C153.126 162.096 153.02 161.616 152.806 161.296C152.593 160.965 152.262 160.8 151.814 160.8C151.196 160.8 150.758 161.029 150.502 161.488C150.246 161.947 150.118 162.613 150.118 163.488V168H148.006V162.736C148.006 162.309 147.958 161.952 147.862 161.664C147.766 161.376 147.622 161.163 147.43 161.024C147.238 160.875 146.993 160.8 146.694 160.8C146.268 160.8 145.932 160.917 145.686 161.152C145.441 161.376 145.265 161.707 145.158 162.144C145.062 162.581 145.014 163.12 145.014 163.76V168H142.886V159.328H144.518L144.822 160.464H144.918C145.078 160.165 145.276 159.92 145.51 159.728C145.756 159.536 146.033 159.397 146.342 159.312C146.662 159.216 146.993 159.168 147.334 159.168C147.942 159.168 148.449 159.28 148.854 159.504C149.27 159.717 149.59 160.053 149.814 160.512H149.926C150.193 160.043 150.545 159.701 150.982 159.488C151.43 159.275 151.905 159.168 152.406 159.168ZM160.124 159.328V168H158.012V159.328H160.124ZM159.084 155.984C159.393 155.984 159.66 156.064 159.884 156.224C160.108 156.373 160.22 156.645 160.22 157.04C160.22 157.424 160.108 157.701 159.884 157.872C159.66 158.032 159.393 158.112 159.084 158.112C158.753 158.112 158.476 158.032 158.252 157.872C158.028 157.701 157.916 157.424 157.916 157.04C157.916 156.645 158.028 156.373 158.252 156.224C158.476 156.064 158.753 155.984 159.084 155.984ZM168.645 165.488C168.645 166.064 168.517 166.555 168.261 166.96C168.005 167.355 167.627 167.653 167.125 167.856C166.624 168.059 165.995 168.16 165.237 168.16C164.661 168.16 164.16 168.117 163.733 168.032C163.307 167.947 162.896 167.813 162.501 167.632V165.92C162.928 166.123 163.387 166.293 163.877 166.432C164.379 166.571 164.832 166.64 165.237 166.64C165.717 166.64 166.064 166.555 166.277 166.384C166.491 166.213 166.597 165.984 166.597 165.696C166.597 165.525 166.549 165.371 166.453 165.232C166.368 165.093 166.187 164.949 165.909 164.8C165.643 164.64 165.253 164.443 164.741 164.208C164.24 163.984 163.824 163.76 163.493 163.536C163.163 163.312 162.912 163.045 162.741 162.736C162.571 162.416 162.485 162.016 162.485 161.536C162.485 160.757 162.779 160.171 163.365 159.776C163.963 159.371 164.741 159.168 165.701 159.168C166.224 159.168 166.709 159.221 167.157 159.328C167.616 159.424 168.075 159.584 168.533 159.808L167.909 161.296C167.653 161.179 167.392 161.077 167.125 160.992C166.869 160.896 166.619 160.821 166.373 160.768C166.139 160.715 165.904 160.688 165.669 160.688C165.296 160.688 165.013 160.757 164.821 160.896C164.629 161.024 164.533 161.211 164.533 161.456C164.533 161.627 164.581 161.781 164.677 161.92C164.773 162.048 164.955 162.181 165.221 162.32C165.488 162.459 165.867 162.635 166.357 162.848C166.848 163.04 167.264 163.248 167.605 163.472C167.947 163.685 168.203 163.952 168.373 164.272C168.555 164.592 168.645 164.997 168.645 165.488ZM176.63 165.488C176.63 166.064 176.502 166.555 176.246 166.96C175.99 167.355 175.611 167.653 175.11 167.856C174.608 168.059 173.979 168.16 173.222 168.16C172.646 168.16 172.144 168.117 171.718 168.032C171.291 167.947 170.88 167.813 170.486 167.632V165.92C170.912 166.123 171.371 166.293 171.862 166.432C172.363 166.571 172.816 166.64 173.222 166.64C173.702 166.64 174.048 166.555 174.262 166.384C174.475 166.213 174.582 165.984 174.582 165.696C174.582 165.525 174.534 165.371 174.438 165.232C174.352 165.093 174.171 164.949 173.894 164.8C173.627 164.64 173.238 164.443 172.726 164.208C172.224 163.984 171.808 163.76 171.478 163.536C171.147 163.312 170.896 163.045 170.726 162.736C170.555 162.416 170.47 162.016 170.47 161.536C170.47 160.757 170.763 160.171 171.35 159.776C171.947 159.371 172.726 159.168 173.686 159.168C174.208 159.168 174.694 159.221 175.142 159.328C175.6 159.424 176.059 159.584 176.518 159.808L175.894 161.296C175.638 161.179 175.376 161.077 175.11 160.992C174.854 160.896 174.603 160.821 174.358 160.768C174.123 160.715 173.888 160.688 173.654 160.688C173.28 160.688 172.998 160.757 172.806 160.896C172.614 161.024 172.518 161.211 172.518 161.456C172.518 161.627 172.566 161.781 172.662 161.92C172.758 162.048 172.939 162.181 173.206 162.32C173.472 162.459 173.851 162.635 174.342 162.848C174.832 163.04 175.248 163.248 175.59 163.472C175.931 163.685 176.187 163.952 176.358 164.272C176.539 164.592 176.63 164.997 176.63 165.488ZM181.03 159.328V168H178.918V159.328H181.03ZM179.99 155.984C180.299 155.984 180.566 156.064 180.79 156.224C181.014 156.373 181.126 156.645 181.126 157.04C181.126 157.424 181.014 157.701 180.79 157.872C180.566 158.032 180.299 158.112 179.99 158.112C179.659 158.112 179.382 158.032 179.158 157.872C178.934 157.701 178.822 157.424 178.822 157.04C178.822 156.645 178.934 156.373 179.158 156.224C179.382 156.064 179.659 155.984 179.99 155.984ZM191.296 163.648C191.296 164.373 191.205 165.013 191.024 165.568C190.842 166.123 190.576 166.597 190.224 166.992C189.882 167.376 189.466 167.669 188.976 167.872C188.485 168.064 187.936 168.16 187.328 168.16C186.762 168.16 186.234 168.064 185.744 167.872C185.264 167.669 184.848 167.376 184.496 166.992C184.154 166.597 183.888 166.123 183.696 165.568C183.504 165.013 183.408 164.373 183.408 163.648C183.408 162.688 183.562 161.877 183.872 161.216C184.192 160.544 184.65 160.037 185.248 159.696C185.845 159.344 186.554 159.168 187.376 159.168C188.144 159.168 188.821 159.344 189.408 159.696C189.994 160.037 190.453 160.544 190.784 161.216C191.125 161.877 191.296 162.688 191.296 163.648ZM185.568 163.648C185.568 164.256 185.632 164.779 185.76 165.216C185.888 165.643 186.08 165.968 186.336 166.192C186.602 166.416 186.944 166.528 187.36 166.528C187.776 166.528 188.112 166.416 188.368 166.192C188.634 165.968 188.826 165.643 188.944 165.216C189.072 164.779 189.136 164.256 189.136 163.648C189.136 163.029 189.072 162.512 188.944 162.096C188.816 161.669 188.618 161.349 188.352 161.136C188.096 160.912 187.76 160.8 187.344 160.8C186.714 160.8 186.261 161.045 185.984 161.536C185.706 162.027 185.568 162.731 185.568 163.648ZM198.212 159.168C199.119 159.168 199.833 159.419 200.356 159.92C200.879 160.421 201.14 161.232 201.14 162.352V168H199.012V162.752C199.012 162.101 198.9 161.616 198.676 161.296C198.452 160.965 198.1 160.8 197.62 160.8C196.905 160.8 196.42 161.056 196.164 161.568C195.908 162.069 195.78 162.8 195.78 163.76V168H193.652V159.328H195.284L195.588 160.464H195.668C195.86 160.165 196.084 159.92 196.34 159.728C196.596 159.536 196.884 159.397 197.204 159.312C197.524 159.216 197.86 159.168 198.212 159.168ZM209.614 165.488C209.614 166.064 209.486 166.555 209.23 166.96C208.974 167.355 208.595 167.653 208.094 167.856C207.593 168.059 206.963 168.16 206.206 168.16C205.63 168.16 205.129 168.117 204.702 168.032C204.275 167.947 203.865 167.813 203.47 167.632V165.92C203.897 166.123 204.355 166.293 204.846 166.432C205.347 166.571 205.801 166.64 206.206 166.64C206.686 166.64 207.033 166.555 207.246 166.384C207.459 166.213 207.566 165.984 207.566 165.696C207.566 165.525 207.518 165.371 207.422 165.232C207.337 165.093 207.155 164.949 206.878 164.8C206.611 164.64 206.222 164.443 205.71 164.208C205.209 163.984 204.793 163.76 204.462 163.536C204.131 163.312 203.881 163.045 203.71 162.736C203.539 162.416 203.454 162.016 203.454 161.536C203.454 160.757 203.747 160.171 204.334 159.776C204.931 159.371 205.71 159.168 206.67 159.168C207.193 159.168 207.678 159.221 208.126 159.328C208.585 159.424 209.043 159.584 209.502 159.808L208.878 161.296C208.622 161.179 208.361 161.077 208.094 160.992C207.838 160.896 207.587 160.821 207.342 160.768C207.107 160.715 206.873 160.688 206.638 160.688C206.265 160.688 205.982 160.757 205.79 160.896C205.598 161.024 205.502 161.211 205.502 161.456C205.502 161.627 205.55 161.781 205.646 161.92C205.742 162.048 205.923 162.181 206.19 162.32C206.457 162.459 206.835 162.635 207.326 162.848C207.817 163.04 208.233 163.248 208.574 163.472C208.915 163.685 209.171 163.952 209.342 164.272C209.523 164.592 209.614 164.997 209.614 165.488Z" fill="#2C2C2C"/>
<path d="M92.5444 252V248.46L99.9719 241.957C100.529 241.454 101.003 240.993 101.394 240.575C101.785 240.151 102.083 239.727 102.289 239.303C102.494 238.872 102.597 238.404 102.597 237.901C102.597 237.337 102.474 236.857 102.229 236.459C101.984 236.054 101.646 235.743 101.215 235.524C100.784 235.305 100.29 235.196 99.7333 235.196C99.1699 235.196 98.676 235.312 98.2518 235.544C97.8275 235.769 97.4961 236.098 97.2575 236.528C97.0254 236.959 96.9094 237.483 96.9094 238.099H92.2461C92.2461 236.714 92.5576 235.518 93.1808 234.51C93.8039 233.502 94.6789 232.727 95.8058 232.183C96.9393 231.633 98.2551 231.358 99.7532 231.358C101.298 231.358 102.64 231.616 103.78 232.134C104.92 232.651 105.802 233.373 106.425 234.301C107.055 235.223 107.37 236.293 107.37 237.513C107.37 238.288 107.214 239.057 106.902 239.82C106.591 240.582 106.031 241.424 105.222 242.345C104.42 243.267 103.28 244.37 101.801 245.656L99.3654 247.903V248.033H107.618V252H92.5444ZM118.195 252.278C116.71 252.278 115.391 252.01 114.238 251.473C113.085 250.936 112.173 250.197 111.504 249.256C110.841 248.314 110.496 247.234 110.469 246.014H115.242C115.282 246.763 115.587 247.366 116.157 247.824C116.727 248.275 117.406 248.5 118.195 248.5C118.812 248.5 119.359 248.364 119.836 248.092C120.313 247.821 120.688 247.439 120.96 246.949C121.231 246.452 121.364 245.882 121.357 245.239C121.364 244.582 121.228 244.009 120.95 243.518C120.678 243.028 120.3 242.647 119.816 242.375C119.339 242.097 118.789 241.957 118.165 241.957C117.576 241.951 117.015 242.08 116.485 242.345C115.961 242.61 115.564 242.972 115.292 243.429L110.947 242.614L111.832 231.636H124.897V235.604H115.879L115.411 240.406H115.531C115.869 239.843 116.412 239.379 117.161 239.014C117.917 238.643 118.775 238.457 119.737 238.457C120.956 238.457 122.043 238.742 122.998 239.312C123.959 239.876 124.715 240.658 125.265 241.659C125.822 242.66 126.1 243.807 126.1 245.099C126.1 246.498 125.769 247.738 125.106 248.818C124.45 249.899 123.528 250.747 122.342 251.364C121.162 251.973 119.78 252.278 118.195 252.278ZM136.548 252.278C134.997 252.278 133.621 252.013 132.422 251.483C131.228 250.946 130.287 250.207 129.598 249.266C128.908 248.324 128.557 247.241 128.544 246.014H133.495C133.515 246.458 133.658 246.853 133.923 247.197C134.188 247.536 134.549 247.801 135.007 247.993C135.464 248.185 135.984 248.281 136.568 248.281C137.151 248.281 137.665 248.179 138.109 247.973C138.56 247.761 138.911 247.473 139.163 247.108C139.415 246.737 139.538 246.312 139.531 245.835C139.538 245.358 139.402 244.934 139.123 244.562C138.845 244.191 138.45 243.903 137.94 243.697C137.436 243.492 136.84 243.389 136.15 243.389H134.172V239.889H136.15C136.753 239.889 137.284 239.79 137.741 239.591C138.205 239.392 138.566 239.114 138.825 238.756C139.083 238.391 139.209 237.973 139.203 237.503C139.209 237.045 139.1 236.644 138.875 236.3C138.656 235.948 138.348 235.677 137.95 235.484C137.559 235.292 137.105 235.196 136.588 235.196C136.044 235.196 135.55 235.292 135.106 235.484C134.669 235.677 134.321 235.948 134.062 236.3C133.804 236.651 133.668 237.059 133.654 237.523H128.951C128.965 236.31 129.303 235.242 129.966 234.321C130.628 233.393 131.53 232.667 132.67 232.143C133.817 231.62 135.123 231.358 136.588 231.358C138.046 231.358 139.329 231.613 140.436 232.124C141.543 232.634 142.404 233.33 143.021 234.212C143.637 235.087 143.946 236.078 143.946 237.185C143.952 238.331 143.578 239.276 142.822 240.018C142.073 240.761 141.109 241.218 139.929 241.391V241.55C141.506 241.735 142.696 242.246 143.498 243.081C144.307 243.916 144.708 244.96 144.701 246.213C144.701 247.393 144.353 248.44 143.657 249.355C142.968 250.263 142.007 250.979 140.774 251.503C139.547 252.02 138.139 252.278 136.548 252.278ZM160.653 258.045C159.201 258.045 157.958 257.843 156.924 257.439C155.89 257.035 155.078 256.481 154.488 255.778C153.898 255.076 153.543 254.28 153.424 253.392L158.028 253.134C158.114 253.445 158.273 253.717 158.505 253.949C158.744 254.181 159.052 254.36 159.43 254.486C159.814 254.612 160.265 254.675 160.782 254.675C161.597 254.675 162.27 254.476 162.8 254.078C163.337 253.687 163.606 253.001 163.606 252.02V249.335H163.437C163.245 249.806 162.953 250.227 162.562 250.598C162.171 250.969 161.683 251.261 161.1 251.473C160.523 251.685 159.861 251.791 159.112 251.791C157.998 251.791 156.977 251.533 156.049 251.016C155.128 250.492 154.388 249.683 153.832 248.589C153.281 247.489 153.006 246.074 153.006 244.344C153.006 242.561 153.291 241.092 153.862 239.939C154.432 238.779 155.177 237.92 156.099 237.364C157.027 236.807 158.024 236.528 159.092 236.528C159.894 236.528 160.58 236.668 161.15 236.946C161.727 237.218 162.201 237.569 162.572 238C162.943 238.431 163.225 238.878 163.417 239.342H163.556V236.727H168.398V252.06C168.398 253.352 168.074 254.443 167.424 255.331C166.774 256.219 165.866 256.892 164.7 257.349C163.533 257.813 162.184 258.045 160.653 258.045ZM160.802 248.251C161.392 248.251 161.896 248.096 162.313 247.784C162.731 247.473 163.052 247.025 163.278 246.442C163.503 245.858 163.616 245.159 163.616 244.344C163.616 243.515 163.503 242.803 163.278 242.206C163.059 241.603 162.737 241.139 162.313 240.814C161.896 240.489 161.392 240.327 160.802 240.327C160.199 240.327 159.688 240.492 159.271 240.824C158.853 241.155 158.535 241.623 158.316 242.226C158.104 242.822 157.998 243.528 157.998 244.344C157.998 245.159 158.107 245.858 158.326 246.442C158.545 247.025 158.86 247.473 159.271 247.784C159.688 248.096 160.199 248.251 160.802 248.251Z" fill="#31A246"/>
<path d="M122.167 283.17H117.917C117.796 282.473 117.572 281.856 117.247 281.318C116.921 280.773 116.516 280.311 116.031 279.932C115.546 279.553 114.993 279.269 114.372 279.08C113.758 278.883 113.095 278.784 112.383 278.784C111.118 278.784 109.997 279.102 109.019 279.739C108.042 280.367 107.277 281.292 106.724 282.511C106.171 283.723 105.894 285.205 105.894 286.955C105.894 288.735 106.171 290.235 106.724 291.455C107.284 292.667 108.05 293.583 109.019 294.205C109.997 294.818 111.114 295.125 112.372 295.125C113.069 295.125 113.72 295.034 114.326 294.852C114.94 294.663 115.489 294.386 115.974 294.023C116.466 293.659 116.879 293.212 117.212 292.682C117.553 292.152 117.788 291.545 117.917 290.864L122.167 290.886C122.008 291.992 121.663 293.03 121.133 294C120.61 294.97 119.925 295.826 119.076 296.568C118.228 297.303 117.235 297.879 116.099 298.295C114.962 298.705 113.701 298.909 112.315 298.909C110.269 298.909 108.444 298.436 106.837 297.489C105.231 296.542 103.966 295.174 103.042 293.386C102.118 291.598 101.656 289.455 101.656 286.955C101.656 284.447 102.122 282.303 103.053 280.523C103.985 278.735 105.254 277.367 106.86 276.42C108.466 275.473 110.284 275 112.315 275C113.61 275 114.815 275.182 115.928 275.545C117.042 275.909 118.034 276.443 118.906 277.148C119.777 277.845 120.493 278.701 121.053 279.716C121.622 280.723 121.993 281.875 122.167 283.17Z" fill="#5B5B5B"/>
<path d="M146.823 286.955C146.823 289.462 146.354 291.61 145.414 293.398C144.482 295.178 143.21 296.542 141.596 297.489C139.99 298.436 138.168 298.909 136.13 298.909C134.092 298.909 132.266 298.436 130.653 297.489C129.047 296.534 127.774 295.167 126.835 293.386C125.903 291.598 125.437 289.455 125.437 286.955C125.437 284.447 125.903 282.303 126.835 280.523C127.774 278.735 129.047 277.367 130.653 276.42C132.266 275.473 134.092 275 136.13 275C138.168 275 139.99 275.473 141.596 276.42C143.21 277.367 144.482 278.735 145.414 280.523C146.354 282.303 146.823 284.447 146.823 286.955ZM142.585 286.955C142.585 285.189 142.308 283.701 141.755 282.489C141.21 281.269 140.452 280.348 139.482 279.727C138.513 279.098 137.395 278.784 136.13 278.784C134.865 278.784 133.748 279.098 132.778 279.727C131.808 280.348 131.047 281.269 130.494 282.489C129.948 283.701 129.676 285.189 129.676 286.955C129.676 288.72 129.948 290.212 130.494 291.432C131.047 292.644 131.808 293.564 132.778 294.193C133.748 294.814 134.865 295.125 136.13 295.125C137.395 295.125 138.513 294.814 139.482 294.193C140.452 293.564 141.21 292.644 141.755 291.432C142.308 290.212 142.585 288.72 142.585 286.955Z" fill="#5B5B5B"/>
<path d="M149.645 305.591V303.464L154.616 298.861C155.039 298.452 155.393 298.084 155.68 297.757C155.97 297.43 156.191 297.109 156.341 296.795C156.491 296.477 156.566 296.134 156.566 295.766C156.566 295.357 156.473 295.005 156.286 294.709C156.1 294.409 155.845 294.18 155.523 294.02C155.2 293.857 154.834 293.775 154.425 293.775C153.998 293.775 153.625 293.861 153.307 294.034C152.989 294.207 152.743 294.455 152.57 294.777C152.398 295.1 152.311 295.484 152.311 295.93H149.509C149.509 295.016 149.716 294.223 150.13 293.55C150.543 292.877 151.123 292.357 151.868 291.989C152.614 291.62 153.473 291.436 154.445 291.436C155.445 291.436 156.316 291.614 157.057 291.968C157.802 292.318 158.382 292.805 158.795 293.427C159.209 294.05 159.416 294.764 159.416 295.568C159.416 296.095 159.311 296.616 159.102 297.13C158.898 297.643 158.532 298.214 158.005 298.841C157.477 299.464 156.734 300.211 155.775 301.084L153.736 303.082V303.177H159.6V305.591H149.645Z" fill="#5B5B5B"/>
<path d="M83.0469 324.591V312.373H90.9935V314.228H85.2602V317.545H90.5818V319.401H85.2602V322.736H91.0412V324.591H83.0469Z" fill="#5B5B5B"/>
<path d="M93.7556 312.373H96.4641L100.091 321.226H100.235L103.862 312.373H106.57V324.591H104.446V316.197H104.333L100.956 324.555H99.3695L95.9928 316.179H95.8794V324.591H93.7556V312.373Z" fill="#5B5B5B"/>
<path d="M111.698 312.373V324.591H109.485V312.373H111.698Z" fill="#5B5B5B"/>
<path d="M121.239 315.732C121.183 315.211 120.948 314.805 120.535 314.514C120.125 314.224 119.592 314.079 118.936 314.079C118.475 314.079 118.079 314.149 117.749 314.288C117.419 314.427 117.166 314.616 116.991 314.855C116.816 315.093 116.727 315.366 116.723 315.672C116.723 315.926 116.78 316.147 116.896 316.334C117.015 316.521 117.176 316.68 117.379 316.811C117.582 316.939 117.806 317.046 118.053 317.134C118.3 317.221 118.548 317.295 118.799 317.354L119.944 317.641C120.406 317.748 120.849 317.893 121.275 318.076C121.704 318.259 122.088 318.49 122.426 318.768C122.768 319.047 123.038 319.383 123.237 319.776C123.436 320.17 123.536 320.632 123.536 321.161C123.536 321.876 123.353 322.507 122.987 323.052C122.621 323.593 122.092 324.016 121.4 324.322C120.712 324.625 119.879 324.776 118.9 324.776C117.95 324.776 117.124 324.629 116.424 324.334C115.728 324.04 115.183 323.611 114.79 323.046C114.4 322.481 114.189 321.793 114.157 320.982H116.335C116.367 321.407 116.498 321.761 116.729 322.043C116.959 322.326 117.26 322.537 117.629 322.676C118.003 322.815 118.421 322.885 118.882 322.885C119.363 322.885 119.785 322.813 120.147 322.67C120.513 322.523 120.799 322.32 121.006 322.061C121.213 321.799 121.318 321.493 121.322 321.143C121.318 320.824 121.225 320.562 121.042 320.355C120.859 320.144 120.602 319.969 120.272 319.83C119.946 319.687 119.564 319.56 119.127 319.448L117.737 319.09C116.731 318.832 115.935 318.44 115.35 317.915C114.77 317.386 114.479 316.684 114.479 315.809C114.479 315.089 114.674 314.459 115.064 313.918C115.458 313.377 115.993 312.957 116.669 312.659C117.345 312.357 118.111 312.206 118.966 312.206C119.833 312.206 120.592 312.357 121.245 312.659C121.901 312.957 122.416 313.373 122.79 313.906C123.164 314.435 123.357 315.043 123.369 315.732H121.239Z" fill="#5B5B5B"/>
<path d="M132.653 315.732C132.597 315.211 132.363 314.805 131.949 314.514C131.539 314.224 131.006 314.079 130.35 314.079C129.889 314.079 129.493 314.149 129.163 314.288C128.833 314.427 128.58 314.616 128.405 314.855C128.23 315.093 128.141 315.366 128.137 315.672C128.137 315.926 128.194 316.147 128.31 316.334C128.429 316.521 128.59 316.68 128.793 316.811C128.996 316.939 129.221 317.046 129.467 317.134C129.714 317.221 129.962 317.295 130.213 317.354L131.358 317.641C131.82 317.748 132.263 317.893 132.689 318.076C133.118 318.259 133.502 318.49 133.84 318.768C134.182 319.047 134.453 319.383 134.652 319.776C134.85 320.17 134.95 320.632 134.95 321.161C134.95 321.876 134.767 322.507 134.401 323.052C134.035 323.593 133.506 324.016 132.814 324.322C132.126 324.625 131.293 324.776 130.314 324.776C129.364 324.776 128.538 324.629 127.838 324.334C127.142 324.04 126.598 323.611 126.204 323.046C125.814 322.481 125.603 321.793 125.571 320.982H127.749C127.781 321.407 127.912 321.761 128.143 322.043C128.373 322.326 128.674 322.537 129.044 322.676C129.417 322.815 129.835 322.885 130.296 322.885C130.778 322.885 131.199 322.813 131.561 322.67C131.927 322.523 132.213 322.32 132.42 322.061C132.627 321.799 132.732 321.493 132.736 321.143C132.732 320.824 132.639 320.562 132.456 320.355C132.273 320.144 132.017 319.969 131.686 319.83C131.36 319.687 130.979 319.56 130.541 319.448L129.151 319.09C128.145 318.832 127.349 318.44 126.765 317.915C126.184 317.386 125.894 316.684 125.894 315.809C125.894 315.089 126.088 314.459 126.478 313.918C126.872 313.377 127.407 312.957 128.083 312.659C128.759 312.357 129.525 312.206 130.38 312.206C131.247 312.206 132.007 312.357 132.659 312.659C133.315 312.957 133.83 313.373 134.204 313.906C134.578 314.435 134.771 315.043 134.783 315.732H132.653Z" fill="#5B5B5B"/>
<path d="M139.64 312.373V324.591H137.427V312.373H139.64Z" fill="#5B5B5B"/>
<path d="M153.459 318.482C153.459 319.798 153.212 320.926 152.719 321.864C152.23 322.799 151.562 323.515 150.714 324.012C149.871 324.509 148.915 324.758 147.845 324.758C146.775 324.758 145.816 324.509 144.969 324.012C144.126 323.511 143.458 322.793 142.965 321.859C142.476 320.92 142.231 319.794 142.231 318.482C142.231 317.165 142.476 316.04 142.965 315.105C143.458 314.166 144.126 313.449 144.969 312.951C145.816 312.454 146.775 312.206 147.845 312.206C148.915 312.206 149.871 312.454 150.714 312.951C151.562 313.449 152.23 314.166 152.719 315.105C153.212 316.04 153.459 317.165 153.459 318.482ZM151.234 318.482C151.234 317.555 151.088 316.774 150.798 316.137C150.512 315.497 150.114 315.014 149.605 314.688C149.096 314.357 148.509 314.192 147.845 314.192C147.181 314.192 146.594 314.357 146.085 314.688C145.576 315.014 145.176 315.497 144.886 316.137C144.599 316.774 144.456 317.555 144.456 318.482C144.456 319.409 144.599 320.192 144.886 320.832C145.176 321.469 145.576 321.952 146.085 322.282C146.594 322.608 147.181 322.771 147.845 322.771C148.509 322.771 149.096 322.608 149.605 322.282C150.114 321.952 150.512 321.469 150.798 320.832C151.088 320.192 151.234 319.409 151.234 318.482Z" fill="#5B5B5B"/>
<path d="M166.096 312.373V324.591H164.127L158.37 316.268H158.269V324.591H156.055V312.373H158.036L163.787 320.701H163.895V312.373H166.096Z" fill="#5B5B5B"/>
<path d="M175.652 315.732C175.596 315.211 175.361 314.805 174.948 314.514C174.538 314.224 174.005 314.079 173.349 314.079C172.888 314.079 172.492 314.149 172.162 314.288C171.832 314.427 171.579 314.616 171.404 314.855C171.229 315.093 171.14 315.366 171.136 315.672C171.136 315.926 171.193 316.147 171.309 316.334C171.428 316.521 171.589 316.68 171.792 316.811C171.995 316.939 172.219 317.046 172.466 317.134C172.713 317.221 172.961 317.295 173.212 317.354L174.357 317.641C174.819 317.748 175.262 317.893 175.688 318.076C176.117 318.259 176.501 318.49 176.839 318.768C177.181 319.047 177.451 319.383 177.65 319.776C177.849 320.17 177.949 320.632 177.949 321.161C177.949 321.876 177.766 322.507 177.4 323.052C177.034 323.593 176.505 324.016 175.813 324.322C175.125 324.625 174.292 324.776 173.313 324.776C172.363 324.776 171.537 324.629 170.837 324.334C170.141 324.04 169.596 323.611 169.203 323.046C168.813 322.481 168.602 321.793 168.57 320.982H170.748C170.78 321.407 170.911 321.761 171.142 322.043C171.372 322.326 171.672 322.537 172.042 322.676C172.416 322.815 172.834 322.885 173.295 322.885C173.776 322.885 174.198 322.813 174.56 322.67C174.926 322.523 175.212 322.32 175.419 322.061C175.626 321.799 175.731 321.493 175.735 321.143C175.731 320.824 175.638 320.562 175.455 320.355C175.272 320.144 175.015 319.969 174.685 319.83C174.359 319.687 173.977 319.56 173.54 319.448L172.15 319.09C171.144 318.832 170.348 318.44 169.763 317.915C169.183 317.386 168.892 316.684 168.892 315.809C168.892 315.089 169.087 314.459 169.477 313.918C169.871 313.377 170.406 312.957 171.082 312.659C171.758 312.357 172.524 312.206 173.379 312.206C174.246 312.206 175.005 312.357 175.658 312.659C176.314 312.957 176.829 313.373 177.203 313.906C177.577 314.435 177.77 315.043 177.782 315.732H175.652Z" fill="#5B5B5B"/>
</svg>
