<svg width="20" height="20" viewBox="0 0 20 20" fill="none" xmlns="http://www.w3.org/2000/svg">
<path fill-rule="evenodd" clip-rule="evenodd" d="M9.97207 7.92314C9.64991 7.92448 9.38764 7.66728 9.38628 7.34865C9.38492 7.03003 9.64498 6.77065 9.96714 6.7693C11.5587 6.76597 13.1927 7.1932 14.5703 7.98282C15.8851 8.73643 17 9.89826 17 11.3846C17 12.1562 16.6943 12.847 16.2233 13.4297C16.0221 13.6786 15.655 13.719 15.4034 13.52C15.1518 13.3211 15.1109 12.958 15.312 12.7092C15.6561 12.2835 15.8333 11.8393 15.8333 11.3846C15.8333 10.5152 15.1658 9.6578 13.9853 8.98113C12.7863 8.29392 11.3572 7.92024 9.97207 7.92314Z" fill="#A3B4CA"/>
<path fill-rule="evenodd" clip-rule="evenodd" d="M5.42972 14.7864C6.76711 15.553 8.47231 16 10 16C11.2484 16 12.6097 15.7017 13.7902 15.1798L14.4486 15.831C14.6764 16.0563 15.0458 16.0563 15.2736 15.831C15.5014 15.6057 15.5014 15.2404 15.2736 15.0151L6.32915 6.16898C6.10134 5.94367 5.73199 5.94367 5.50419 6.16898C5.27638 6.39428 5.27638 6.75957 5.50419 6.98487L6.14483 7.61847C5.38702 7.96076 4.69044 8.403 4.14582 8.9353C3.47167 9.5942 3 10.4244 3 11.3846C3 12.871 4.11492 14.0328 5.42972 14.7864ZM8.83333 11.3846C8.83333 12.0219 9.35567 12.5385 10 12.5385C10.3102 12.5385 10.5921 12.4188 10.801 12.2235L9.15179 10.5924C8.95437 10.7991 8.83333 11.0779 8.83333 11.3846ZM7.66667 11.3846C7.66667 12.6591 8.71134 13.6923 10 13.6923C10.6323 13.6923 11.2059 13.4435 11.6262 13.0396L12.8974 14.2968C11.9628 14.6495 10.9347 14.8462 10 14.8462C8.67584 14.8462 7.17271 14.4518 6.01472 13.7881C4.83416 13.1114 4.16667 12.254 4.16667 11.3846C4.16667 10.8223 4.4396 10.2704 4.96589 9.756C5.47948 9.25402 6.20522 8.81962 7.03454 8.49841L8.32666 9.77633C7.9182 10.1919 7.66667 10.7592 7.66667 11.3846Z" fill="#A3B4CA"/>
</svg>
