<svg width="14" height="16" viewBox="0 0 14 16" fill="none" xmlns="http://www.w3.org/2000/svg">
<path d="M11.8473 3.55688L11.4241 13.826C11.408 14.2145 11.0786 14.5332 10.6933 14.5332H3.30874C2.92338 14.5332 2.59386 14.2139 2.57795 13.826L2.15474 3.55688C2.14943 3.42813 2.0419 3.3282 1.91458 3.33357C1.78725 3.33894 1.68825 3.44766 1.69356 3.5764L2.11677 13.8455C2.14317 14.4834 2.67597 15 3.30877 15H10.6933C11.3258 15 11.8589 14.4844 11.8853 13.8455L12.3085 3.5764C12.3138 3.44766 12.2148 3.33894 12.0875 3.33357C11.9602 3.3282 11.8526 3.42813 11.8473 3.55688Z" fill="#FBFBFB"/>
<path d="M6.76953 4.96587V12.8992C6.76953 13.0281 6.87287 13.1326 7.00036 13.1326C7.12785 13.1326 7.2312 13.0281 7.2312 12.8992V4.96587C7.2312 4.83696 7.12785 4.73247 7.00036 4.73247C6.87287 4.73247 6.76953 4.83696 6.76953 4.96587Z" fill="#FBFBFB"/>
<path d="M4.23057 4.97476L4.4614 12.9081C4.4651 13.037 4.57151 13.1382 4.69883 13.1345C4.82632 13.1307 4.92644 13.0231 4.92274 12.8944L4.69191 4.96109C4.68821 4.83235 4.58196 4.73095 4.45448 4.73485C4.32715 4.7386 4.22687 4.84586 4.23057 4.97476Z" fill="#FBFBFB"/>
<path d="M9.3071 4.95898L9.07627 12.8923C9.07257 13.021 9.17269 13.1286 9.30018 13.1324C9.42751 13.1361 9.53391 13.0349 9.53761 12.906L9.76844 4.97265C9.77215 4.84374 9.67186 4.73632 9.54453 4.73258C9.41704 4.72867 9.3108 4.83023 9.3071 4.95898Z" fill="#FBFBFB"/>
<path d="M1.23083 2.63348H12.7692C12.8967 2.63348 13 2.52899 13 2.40008C13 2.27117 12.8967 2.16668 12.7692 2.16668H1.23083C1.10334 2.16668 1 2.27117 1 2.40008C1 2.52899 1.10334 2.63348 1.23083 2.63348Z" fill="#FBFBFB"/>
<path d="M4.907 2.48663L5.15393 1.86246C5.23731 1.65185 5.50774 1.46679 5.73117 1.46679H8.26969C8.49424 1.46679 8.76308 1.65071 8.84694 1.86246L9.09387 2.48663L9.52235 2.31345L9.27542 1.68912C9.12153 1.30029 8.68305 1 8.26969 1H5.73117C5.31909 1 4.87882 1.30143 4.72544 1.68912L4.47851 2.31345L4.907 2.48663Z" fill="#FBFBFB"/>
<path d="M11.8473 3.55688L11.4241 13.826C11.408 14.2145 11.0786 14.5332 10.6933 14.5332H3.30874C2.92338 14.5332 2.59386 14.2139 2.57795 13.826L2.15474 3.55688C2.14943 3.42813 2.0419 3.3282 1.91458 3.33357C1.78725 3.33894 1.68825 3.44766 1.69356 3.5764L2.11677 13.8455C2.14317 14.4834 2.67597 15 3.30877 15H10.6933C11.3258 15 11.8589 14.4844 11.8853 13.8455L12.3085 3.5764C12.3138 3.44766 12.2148 3.33894 12.0875 3.33357C11.9602 3.3282 11.8526 3.42813 11.8473 3.55688Z" stroke="#FBFBFB" stroke-width="0.5"/>
<path d="M6.76953 4.96587V12.8992C6.76953 13.0281 6.87287 13.1326 7.00036 13.1326C7.12785 13.1326 7.2312 13.0281 7.2312 12.8992V4.96587C7.2312 4.83696 7.12785 4.73247 7.00036 4.73247C6.87287 4.73247 6.76953 4.83696 6.76953 4.96587Z" stroke="#FBFBFB" stroke-width="0.5"/>
<path d="M4.23057 4.97476L4.4614 12.9081C4.4651 13.037 4.57151 13.1382 4.69883 13.1345C4.82632 13.1307 4.92644 13.0231 4.92274 12.8944L4.69191 4.96109C4.68821 4.83235 4.58196 4.73095 4.45448 4.73485C4.32715 4.7386 4.22687 4.84586 4.23057 4.97476Z" stroke="#FBFBFB" stroke-width="0.5"/>
<path d="M9.3071 4.95898L9.07627 12.8923C9.07257 13.021 9.17269 13.1286 9.30018 13.1324C9.42751 13.1361 9.53391 13.0349 9.53761 12.906L9.76844 4.97265C9.77215 4.84374 9.67186 4.73632 9.54453 4.73258C9.41704 4.72867 9.3108 4.83023 9.3071 4.95898Z" stroke="#FBFBFB" stroke-width="0.5"/>
<path d="M1.23083 2.63348H12.7692C12.8967 2.63348 13 2.52899 13 2.40008C13 2.27117 12.8967 2.16668 12.7692 2.16668H1.23083C1.10334 2.16668 1 2.27117 1 2.40008C1 2.52899 1.10334 2.63348 1.23083 2.63348Z" stroke="#FBFBFB" stroke-width="0.5"/>
<path d="M4.907 2.48663L5.15393 1.86246C5.23731 1.65185 5.50774 1.46679 5.73117 1.46679H8.26969C8.49424 1.46679 8.76308 1.65071 8.84694 1.86246L9.09387 2.48663L9.52235 2.31345L9.27542 1.68912C9.12153 1.30029 8.68305 1 8.26969 1H5.73117C5.31909 1 4.87882 1.30143 4.72544 1.68912L4.47851 2.31345L4.907 2.48663Z" stroke="#FBFBFB" stroke-width="0.5"/>
</svg>
