<svg width="24" height="24" viewBox="0 0 24 24" fill="none" xmlns="http://www.w3.org/2000/svg">
<path d="M17.399 19.2692L17.3999 19.2692C17.421 19.2692 17.4436 19.2771 17.4627 19.295C17.4822 19.3133 17.4966 19.3407 17.4995 19.3731C17.5024 19.4055 17.493 19.4363 17.4759 19.4594C17.4623 19.4777 17.4453 19.4894 17.4281 19.4953L17.3763 19.5L6.601 19.5L6.60005 19.5C6.57895 19.5 6.5564 19.4921 6.53726 19.4742C6.51777 19.456 6.50337 19.4285 6.50051 19.3962C6.49765 19.3638 6.50698 19.3329 6.52409 19.3098L6.12255 19.0119L6.52409 19.3098C6.53765 19.2916 6.55466 19.2799 6.57185 19.274L6.62375 19.2692L17.399 19.2692ZM11.9272 4.53648C11.9402 4.52055 11.9558 4.51018 11.9715 4.50467L12.0126 4.50092C12.0286 4.50329 12.0448 4.51028 12.0593 4.52269C12.075 4.53607 12.088 4.55532 12.0948 4.5787L12.0999 4.63701V15.4363V16.6652L12.9579 15.7854L16.1757 12.4857L16.1759 12.4854C16.1934 12.4674 16.2144 12.4583 16.2342 12.4565L16.1878 11.9586L16.2342 12.4565C16.2503 12.455 16.2673 12.4581 16.2832 12.4665L16.3179 12.496C16.3308 12.5132 16.3397 12.5352 16.3419 12.5599C16.3441 12.585 16.3389 12.6094 16.3284 12.6298L16.2928 12.6732L12.0671 17.0094C12.067 17.0094 12.067 17.0095 12.0669 17.0095C12.0494 17.0273 12.0286 17.0364 12.0087 17.0382C11.9922 17.0397 11.9748 17.0364 11.9585 17.0274L11.9155 16.9915L7.69214 12.6578L7.69131 12.657C7.67228 12.6375 7.65901 12.6091 7.65754 12.5766C7.65607 12.544 7.66675 12.5138 7.68456 12.4919C7.70209 12.4704 7.72442 12.459 7.74562 12.4561C7.76277 12.4537 7.78094 12.4565 7.79798 12.4654L7.83942 12.5012L11.0421 15.7854L11.9001 16.6652V15.4363V4.61538V4.61522C11.9001 4.58477 11.9106 4.55697 11.9272 4.53648Z" fill="#2C2C2C" stroke="#2C2C2C"/>
</svg>
