<svg width="25" height="24" viewBox="0 0 25 24" fill="none" xmlns="http://www.w3.org/2000/svg">
<path d="M17.899 19.2692L17.8999 19.2692C17.921 19.2692 17.9436 19.2771 17.9627 19.295C17.9822 19.3133 17.9966 19.3407 17.9995 19.3731C18.0024 19.4055 17.993 19.4363 17.9759 19.4594C17.9623 19.4777 17.9453 19.4894 17.9281 19.4953L17.8763 19.5L7.101 19.5L7.10005 19.5C7.07895 19.5 7.0564 19.4921 7.03726 19.4742C7.01777 19.456 7.00337 19.4285 7.00051 19.3962C6.99765 19.3638 7.00698 19.3329 7.02409 19.3098C7.03765 19.2916 7.05466 19.2799 7.07185 19.274L7.12375 19.2692L17.899 19.2692ZM12.4272 4.53648C12.4402 4.52055 12.4558 4.51018 12.4715 4.50467L12.5126 4.50092C12.5286 4.50329 12.5448 4.51028 12.5593 4.52269C12.575 4.53607 12.588 4.55532 12.5948 4.57871L12.5999 4.63701V15.4363V16.6652L13.4579 15.7854L16.6757 12.4857L16.6759 12.4854C16.6934 12.4674 16.7144 12.4583 16.7342 12.4565C16.7503 12.455 16.7673 12.4581 16.7832 12.4665L16.8179 12.496C16.8308 12.5132 16.8397 12.5352 16.8419 12.5599C16.8441 12.585 16.8389 12.6094 16.8284 12.6298L16.7928 12.6732L12.5671 17.0094C12.567 17.0094 12.567 17.0095 12.5669 17.0095C12.5494 17.0273 12.5286 17.0364 12.5087 17.0382C12.4922 17.0397 12.4748 17.0364 12.4585 17.0274L12.4155 16.9915L8.19214 12.6578L8.19131 12.657C8.17228 12.6375 8.15901 12.6091 8.15754 12.5766C8.15607 12.544 8.16675 12.5138 8.18456 12.4919C8.20209 12.4704 8.22442 12.459 8.24562 12.4561C8.26277 12.4537 8.28094 12.4565 8.29798 12.4654L8.33942 12.5012L11.5421 15.7854L12.4001 16.6652V15.4363V4.61538V4.61522C12.4001 4.58477 12.4106 4.55697 12.4272 4.53648Z" fill="white" stroke="white"/>
</svg>
