<svg width="100" height="26" viewBox="0 0 100 26" fill="none" xmlns="http://www.w3.org/2000/svg">
<rect width="100" height="26" rx="3" fill="#40A63A"/>
<path d="M6.25174 6.53699L8.69165 6.57534H14.3073V6.1726C14.3073 6.05753 14.3977 6 14.5784 6C14.7721 6 14.8689 6.05753 14.8689 6.1726C14.8689 7.45114 14.9334 8.42283 15.0625 9.08767C15.0884 9.18995 14.998 9.2411 14.7914 9.2411C14.5849 9.2411 14.4687 9.18995 14.4429 9.08767C14.2363 8.28219 13.991 7.81552 13.707 7.68767C13.0228 7.43196 11.9255 7.29772 10.4151 7.28493C10.1569 7.29772 9.98261 7.36804 9.89224 7.49589C9.81479 7.62374 9.77606 7.84749 9.77606 8.16712V12.6932C10.5765 12.6804 11.3575 12.642 12.1192 12.5781C12.8808 12.5142 13.2939 12.463 13.3585 12.4247L13.5521 11.2932C13.565 11.2037 13.6425 11.1589 13.7845 11.1589C14.0556 11.1589 14.1782 11.2164 14.1524 11.3315C14.0879 11.8301 14.0556 12.3927 14.0556 13.0192C14.0556 13.6457 14.0879 14.2082 14.1524 14.7068C14.1782 14.8091 14.0814 14.8603 13.8619 14.8603C13.6554 14.8603 13.5521 14.8219 13.5521 14.7452L13.3391 13.5945C13.2617 13.5562 12.8485 13.505 12.0998 13.4411C11.3639 13.3644 10.5894 13.3196 9.77606 13.3068V16.989C9.77606 18.1142 9.91161 18.6767 10.1827 18.6767H11.1703C13.1713 18.6511 14.5397 18.3826 15.2755 17.8712L15.4111 16.8164C15.4369 16.7142 15.5466 16.663 15.7403 16.663C15.9468 16.663 16.0501 16.7014 16.0501 16.7781L15.8758 19.8658C15.8758 19.9553 15.7726 20 15.566 20C15.3724 20 15.2755 19.9553 15.2755 19.8658V19.4438H10.4925L6.15492 19.4822C6.05164 19.4822 6 19.3735 6 19.1562C6 18.9388 6.05164 18.8301 6.15492 18.8301H6.98758C7.31032 18.8301 7.52333 18.7726 7.62661 18.6575C7.72989 18.5297 7.78152 18.2932 7.78152 17.9479V8.85753C7.78152 7.73242 7.64597 7.16986 7.37487 7.16986H6.25174C6.14846 7.16986 6.09682 7.06758 6.09682 6.86301C6.09682 6.64566 6.14846 6.53699 6.25174 6.53699Z" fill="white"/>
<path d="M27.4656 10.2384L30.0023 10.1808C30.1056 10.1808 30.1572 10.2767 30.1572 10.4685C30.1572 10.6475 30.1056 10.737 30.0023 10.737H29.5182C29.2342 10.737 29.0922 10.9735 29.0922 11.4466C29.0922 11.6511 29.1826 12.6612 29.3633 14.4767C29.5569 16.2922 29.6796 17.4749 29.7312 18.0247C29.7958 18.5744 29.912 18.8493 30.0798 18.8493H30.9318C31.048 18.8493 31.1061 18.9516 31.1061 19.1562C31.1061 19.3479 31.0545 19.4438 30.9512 19.4438L29.0535 19.4247L27.0977 19.4822C27.0073 19.4822 26.9621 19.3863 26.9621 19.1945C26.9621 19.0027 27.0008 18.9068 27.0783 18.9068H27.6786C28.0272 18.9068 28.1885 18.7598 28.1627 18.4658C27.9045 14.8858 27.7625 12.8594 27.7367 12.3863H27.6592C26.4586 14.8922 25.4646 17.1616 24.6771 19.1945C24.6255 19.3096 24.4964 19.3671 24.2898 19.3671C24.0962 19.3671 23.9735 19.3032 23.9219 19.1753C23.5733 18.2804 22.6309 15.9662 21.0947 12.2329H21.0366C20.843 14.8795 20.7461 16.4457 20.7461 16.9315C20.7461 17.4174 20.7461 17.6795 20.7461 17.7178C20.7461 18.4721 20.8623 18.8493 21.0947 18.8493H21.695C21.8241 18.8493 21.8886 18.9516 21.8886 19.1562C21.8886 19.3479 21.8241 19.4438 21.695 19.4438L20.1458 19.4247L18.2869 19.4822C18.2094 19.4822 18.1707 19.3863 18.1707 19.1945C18.1707 19.0027 18.2159 18.9068 18.3062 18.9068H18.771C19.0808 18.9068 19.268 18.8749 19.3325 18.811C19.41 18.7342 19.4616 18.6384 19.4875 18.5233C19.5778 17.9991 19.7134 16.8612 19.8941 15.1096C20.0878 13.358 20.1846 12.284 20.1846 11.8877C20.1975 11.4785 20.1717 11.1909 20.1071 11.0247C20.0555 10.8584 19.9522 10.7753 19.7973 10.7753H19.2551C19.1776 10.7753 19.1389 10.6795 19.1389 10.4877C19.1389 10.2831 19.1776 10.1808 19.2551 10.1808L21.1141 10.2384H22.0242C22.1404 10.5708 22.9924 12.8849 24.5803 17.1808H24.6577C25.5614 15.263 26.4974 12.9489 27.4656 10.2384Z" fill="white"/>
<path d="M32.8899 10.1808L34.4197 10.2192C34.5617 10.2192 34.6843 10.2192 34.7876 10.2192L36.8015 10.1808C36.8919 10.1808 36.937 10.2767 36.937 10.4685C36.937 10.6475 36.8854 10.737 36.7821 10.737H35.8914C35.7235 10.737 35.6396 10.8393 35.6396 11.0438V17.3918C35.6396 18.3635 35.7687 18.8493 36.0269 18.8493H36.9951C37.0984 18.8493 37.1501 18.9516 37.1501 19.1562C37.1501 19.3479 37.1113 19.4438 37.0339 19.4438L34.7876 19.4247L32.8512 19.4822C32.7608 19.4822 32.7156 19.3863 32.7156 19.1945C32.7156 19.0027 32.7543 18.9068 32.8318 18.9068H33.7032C33.8452 18.9068 33.9291 18.8813 33.9549 18.8301C33.9807 18.7662 33.9937 18.6064 33.9937 18.3507V12.3096C33.9937 11.2868 33.8646 10.7753 33.6064 10.7753H32.9093C32.7543 10.7753 32.6769 10.6795 32.6769 10.4877C32.6769 10.2831 32.7479 10.1808 32.8899 10.1808Z" fill="white"/>
<path d="M44.9131 10.1425L45.3197 12.2521C45.3197 12.3543 45.2423 12.4055 45.0873 12.4055C44.9324 12.4055 44.8356 12.3543 44.7969 12.2521C44.6291 11.779 44.3644 11.389 44.0029 11.0822C43.6415 10.7753 43.2477 10.6219 42.8217 10.6219C42.4086 10.6091 42.0407 10.7242 41.7179 10.9671C41.4081 11.21 41.2532 11.5105 41.2532 11.8685C41.2532 12.2137 41.3565 12.5333 41.563 12.8274C41.7825 13.1087 42.0471 13.3516 42.357 13.5562C42.6668 13.7607 43.0089 13.9973 43.3833 14.2658C43.7577 14.5215 44.0998 14.7772 44.4096 15.0329C44.7194 15.2886 44.9776 15.621 45.1842 16.0301C45.4036 16.4393 45.5134 16.8804 45.5134 17.3534C45.5134 18.095 45.1842 18.6703 44.5258 19.0795C43.8674 19.4886 43.1509 19.6932 42.3763 19.6932C41.6147 19.6932 40.9111 19.5461 40.2656 19.2521C40.2656 19.4055 40.2527 19.5014 40.2269 19.5397C40.214 19.5781 40.1494 19.6037 40.0332 19.6164H39.9558C39.8525 19.6164 39.7944 19.5653 39.7815 19.463C39.7557 19.1562 39.704 18.7342 39.6266 18.1973C39.5491 17.6603 39.491 17.2256 39.4523 16.8932C39.4523 16.7653 39.5298 16.7014 39.6847 16.7014C39.8525 16.7014 39.9429 16.7333 39.9558 16.7973C40.1365 17.4237 40.4528 17.9671 40.9046 18.4274C41.3565 18.8749 41.8277 19.0986 42.3182 19.0986C42.8088 19.0986 43.2155 18.9836 43.5382 18.7534C43.8609 18.5105 44.0223 18.1781 44.0223 17.7562C44.0223 17.3342 43.8738 16.9507 43.5769 16.6055C43.2929 16.2475 42.9443 15.9279 42.5312 15.6466C42.1181 15.3653 41.705 15.084 41.2919 14.8027C40.8788 14.5087 40.5238 14.1507 40.2269 13.7288C39.9429 13.3068 39.8009 12.8466 39.8009 12.3479C39.8009 11.632 40.1042 11.063 40.711 10.6411C41.3306 10.2192 42.06 10.0082 42.8992 10.0082C43.3768 10.0082 43.8867 10.0977 44.429 10.2767C44.4031 10.2 44.3902 10.1105 44.3902 10.0082C44.3902 9.89315 44.4483 9.83562 44.5645 9.83562C44.6936 9.83562 44.7775 9.85479 44.8162 9.89315C44.855 9.91872 44.8872 10.0018 44.9131 10.1425Z" fill="white"/>
<path d="M53.2715 10.1425L53.6782 12.2521C53.6782 12.3543 53.6007 12.4055 53.4458 12.4055C53.2909 12.4055 53.1941 12.3543 53.1553 12.2521C52.9875 11.779 52.7229 11.389 52.3614 11.0822C51.9999 10.7753 51.6062 10.6219 51.1802 10.6219C50.7671 10.6091 50.3991 10.7242 50.0764 10.9671C49.7666 11.21 49.6117 11.5105 49.6117 11.8685C49.6117 12.2137 49.7149 12.5333 49.9215 12.8274C50.1409 13.1087 50.4056 13.3516 50.7154 13.5562C51.0253 13.7607 51.3674 13.9973 51.7417 14.2658C52.1161 14.5215 52.4582 14.7772 52.7681 15.0329C53.0779 15.2886 53.3361 15.621 53.5426 16.0301C53.7621 16.4393 53.8718 16.8804 53.8718 17.3534C53.8718 18.095 53.5426 18.6703 52.8842 19.0795C52.2258 19.4886 51.5094 19.6932 50.7348 19.6932C49.9731 19.6932 49.2696 19.5461 48.6241 19.2521C48.6241 19.4055 48.6112 19.5014 48.5853 19.5397C48.5724 19.5781 48.5079 19.6037 48.3917 19.6164H48.3142C48.211 19.6164 48.1529 19.5653 48.14 19.463C48.1141 19.1562 48.0625 18.7342 47.985 18.1973C47.9076 17.6603 47.8495 17.2256 47.8108 16.8932C47.8108 16.7653 47.8882 16.7014 48.0431 16.7014C48.211 16.7014 48.3013 16.7333 48.3142 16.7973C48.495 17.4237 48.8113 17.9671 49.2631 18.4274C49.7149 18.8749 50.1861 19.0986 50.6767 19.0986C51.1673 19.0986 51.5739 18.9836 51.8967 18.7534C52.2194 18.5105 52.3808 18.1781 52.3808 17.7562C52.3808 17.3342 52.2323 16.9507 51.9354 16.6055C51.6514 16.2475 51.3028 15.9279 50.8897 15.6466C50.4766 15.3653 50.0635 15.084 49.6504 14.8027C49.2373 14.5087 48.8823 14.1507 48.5853 13.7288C48.3013 13.3068 48.1593 12.8466 48.1593 12.3479C48.1593 11.632 48.4627 11.063 49.0695 10.6411C49.6891 10.2192 50.4185 10.0082 51.2576 10.0082C51.7353 10.0082 52.2452 10.0977 52.7874 10.2767C52.7616 10.2 52.7487 10.1105 52.7487 10.0082C52.7487 9.89315 52.8068 9.83562 52.923 9.83562C53.0521 9.83562 53.136 9.85479 53.1747 9.89315C53.2134 9.91872 53.2457 10.0018 53.2715 10.1425Z" fill="white"/>
<path d="M56.1499 10.1808L57.6796 10.2192C57.8217 10.2192 57.9443 10.2192 58.0476 10.2192L60.0615 10.1808C60.1518 10.1808 60.197 10.2767 60.197 10.4685C60.197 10.6475 60.1454 10.737 60.0421 10.737H59.1513C58.9835 10.737 58.8996 10.8393 58.8996 11.0438V17.3918C58.8996 18.3635 59.0287 18.8493 59.2869 18.8493H60.2551C60.3584 18.8493 60.41 18.9516 60.41 19.1562C60.41 19.3479 60.3713 19.4438 60.2938 19.4438L58.0476 19.4247L56.1111 19.4822C56.0208 19.4822 55.9756 19.3863 55.9756 19.1945C55.9756 19.0027 56.0143 18.9068 56.0918 18.9068H56.9632C57.1052 18.9068 57.1891 18.8813 57.2149 18.8301C57.2407 18.7662 57.2536 18.6064 57.2536 18.3507V12.3096C57.2536 11.2868 57.1245 10.7753 56.8663 10.7753H56.1692C56.0143 10.7753 55.9369 10.6795 55.9369 10.4877C55.9369 10.2831 56.0079 10.1808 56.1499 10.1808Z" fill="white"/>
<path d="M64.0291 11.4082C65.0747 10.4493 66.2882 9.96986 67.6696 9.96986C69.0509 9.96986 70.2579 10.4493 71.2907 11.4082C72.3364 12.3671 72.8592 13.505 72.8592 14.8219C72.8592 16.126 72.3364 17.2639 71.2907 18.2356C70.2579 19.2073 69.0509 19.6932 67.6696 19.6932C66.2882 19.6932 65.0747 19.2073 64.0291 18.2356C62.9963 17.2639 62.4799 16.126 62.4799 14.8219C62.4799 13.505 62.9963 12.3671 64.0291 11.4082ZM70.0127 11.8685C69.4059 11.063 68.6249 10.6603 67.6696 10.6603C66.7143 10.6603 65.9332 11.063 65.3265 11.8685C64.7197 12.6612 64.4163 13.6457 64.4163 14.8219C64.4163 15.9854 64.7197 16.9763 65.3265 17.7945C65.9332 18.6 66.7143 19.0027 67.6696 19.0027C68.6249 19.0027 69.4059 18.6 70.0127 17.7945C70.6194 16.9763 70.9228 15.9854 70.9228 14.8219C70.9228 13.6457 70.6194 12.6612 70.0127 11.8685Z" fill="white"/>
<path d="M83.8689 10.2192L85.6505 10.1808C85.7279 10.1808 85.7667 10.2767 85.7667 10.4685C85.7667 10.6475 85.7279 10.737 85.6505 10.737H84.9727C84.792 10.737 84.6758 10.7817 84.6241 10.8712C84.3918 11.2676 84.2756 14.1443 84.2756 19.5014C84.2756 19.6292 84.1659 19.6932 83.9464 19.6932C83.7398 19.6932 83.5914 19.6484 83.501 19.5589C80.9191 16.516 78.8406 14.0484 77.2657 12.1562H77.2076C77.2463 14.4192 77.285 16.3114 77.3238 17.8329C77.3238 18.4977 77.4206 18.8301 77.6142 18.8301H78.3888C78.4663 18.8301 78.505 18.9324 78.505 19.137C78.505 19.3288 78.4663 19.4247 78.3888 19.4247H76.7816L75.0194 19.463C74.9549 19.463 74.9226 19.3735 74.9226 19.1945C74.9226 19.0027 74.9549 18.9068 75.0194 18.9068H75.4842C75.8844 18.9068 76.0909 18.779 76.1038 18.5233C76.2975 16.4521 76.3943 14.0292 76.3943 11.2548C76.1877 11.0119 76.0134 10.8712 75.8714 10.8329C75.7294 10.7945 75.4648 10.7753 75.0775 10.7753C75 10.7753 74.9613 10.6795 74.9613 10.4877C74.9613 10.2831 75 10.1808 75.0775 10.1808L77.8079 10.2192C80.9449 14.1571 82.791 16.4904 83.3461 17.2192H83.3848C83.3332 13.8694 83.288 11.958 83.2493 11.4849C83.2105 11.0119 83.1073 10.7753 82.9394 10.7753H82.2617C82.1713 10.7753 82.1261 10.6795 82.1261 10.4877C82.1261 10.2831 82.1713 10.1808 82.2617 10.1808L83.8689 10.2192Z" fill="white"/>
<path d="M93.3997 10.1425L93.8064 12.2521C93.8064 12.3543 93.7289 12.4055 93.574 12.4055C93.4191 12.4055 93.3223 12.3543 93.2835 12.2521C93.1157 11.779 92.851 11.389 92.4896 11.0822C92.1281 10.7753 91.7344 10.6219 91.3083 10.6219C90.8952 10.6091 90.5273 10.7242 90.2046 10.9671C89.8948 11.21 89.7398 11.5105 89.7398 11.8685C89.7398 12.2137 89.8431 12.5333 90.0497 12.8274C90.2691 13.1087 90.5338 13.3516 90.8436 13.5562C91.1534 13.7607 91.4955 13.9973 91.8699 14.2658C92.2443 14.5215 92.5864 14.7772 92.8962 15.0329C93.2061 15.2886 93.4642 15.621 93.6708 16.0301C93.8903 16.4393 94 16.8804 94 17.3534C94 18.095 93.6708 18.6703 93.0124 19.0795C92.354 19.4886 91.6375 19.6932 90.863 19.6932C90.1013 19.6932 89.3977 19.5461 88.7522 19.2521C88.7522 19.4055 88.7393 19.5014 88.7135 19.5397C88.7006 19.5781 88.6361 19.6037 88.5199 19.6164H88.4424C88.3391 19.6164 88.2811 19.5653 88.2681 19.463C88.2423 19.1562 88.1907 18.7342 88.1132 18.1973C88.0358 17.6603 87.9777 17.2256 87.9389 16.8932C87.9389 16.7653 88.0164 16.7014 88.1713 16.7014C88.3391 16.7014 88.4295 16.7333 88.4424 16.7973C88.6232 17.4237 88.9394 17.9671 89.3913 18.4274C89.8431 18.8749 90.3143 19.0986 90.8049 19.0986C91.2954 19.0986 91.7021 18.9836 92.0248 18.7534C92.3476 18.5105 92.5089 18.1781 92.5089 17.7562C92.5089 17.3342 92.3605 16.9507 92.0636 16.6055C91.7795 16.2475 91.431 15.9279 91.0179 15.6466C90.6048 15.3653 90.1917 15.084 89.7786 14.8027C89.3655 14.5087 89.0104 14.1507 88.7135 13.7288C88.4295 13.3068 88.2875 12.8466 88.2875 12.3479C88.2875 11.632 88.5909 11.063 89.1976 10.6411C89.8173 10.2192 90.5467 10.0082 91.3858 10.0082C91.8635 10.0082 92.3734 10.0977 92.9156 10.2767C92.8898 10.2 92.8769 10.1105 92.8769 10.0082C92.8769 9.89315 92.935 9.83562 93.0511 9.83562C93.1802 9.83562 93.2642 9.85479 93.3029 9.89315C93.3416 9.91872 93.3739 10.0018 93.3997 10.1425Z" fill="white"/>
</svg>
