<svg width="16" height="16" viewBox="0 0 16 16" fill="none" xmlns="http://www.w3.org/2000/svg">
<path d="M7.985 4.925C8.3716 4.925 8.685 4.6116 8.685 4.225C8.685 3.8384 8.3716 3.525 7.985 3.525C7.5984 3.525 7.285 3.8384 7.285 4.225C7.285 4.6116 7.5984 4.925 7.985 4.925Z" fill="#707070"/>
<path d="M9.5 11.5H8.5V6.05H7C6.86739 6.05 6.74022 6.10268 6.64645 6.19645C6.55268 6.29022 6.5 6.41739 6.5 6.55C6.5 6.68261 6.55268 6.80979 6.64645 6.90356C6.74022 6.99732 6.86739 7.05 7 7.05H7.5V11.5H6.5C6.36739 11.5 6.24022 11.5527 6.14645 11.6464C6.05268 11.7402 6 11.8674 6 12C6 12.1326 6.05268 12.2598 6.14645 12.3536C6.24022 12.4473 6.36739 12.5 6.5 12.5H9.5C9.63261 12.5 9.75979 12.4473 9.85356 12.3536C9.94732 12.2598 10 12.1326 10 12C10 11.8674 9.94732 11.7402 9.85356 11.6464C9.75979 11.5527 9.63261 11.5 9.5 11.5Z" fill="#707070"/>
<path d="M8 16C6.41775 16 4.87103 15.5308 3.55544 14.6518C2.23985 13.7727 1.21447 12.5233 0.608967 11.0615C0.00346625 9.59966 -0.15496 7.99113 0.153721 6.43928C0.462403 4.88743 1.22433 3.46197 2.34315 2.34315C3.46197 1.22433 4.88743 0.462403 6.43928 0.153721C7.99113 -0.15496 9.59966 0.00346625 11.0615 0.608967C12.5233 1.21447 13.7727 2.23985 14.6518 3.55544C15.5308 4.87103 16 6.41775 16 8C16 10.1217 15.1571 12.1566 13.6569 13.6569C12.1566 15.1571 10.1217 16 8 16ZM8 1C6.61553 1 5.26215 1.41055 4.11101 2.17972C2.95987 2.94889 2.06266 4.04214 1.53285 5.32122C1.00303 6.6003 0.86441 8.00777 1.13451 9.36563C1.4046 10.7235 2.07129 11.9708 3.05026 12.9497C4.02922 13.9287 5.2765 14.5954 6.63437 14.8655C7.99224 15.1356 9.3997 14.997 10.6788 14.4672C11.9579 13.9373 13.0511 13.0401 13.8203 11.889C14.5895 10.7378 15 9.38447 15 8C15 6.14349 14.2625 4.36301 12.9497 3.05026C11.637 1.7375 9.85652 1 8 1Z" fill="#707070"/>
</svg>
