<svg width="6" height="12" viewBox="0 0 6 12" fill="none" xmlns="http://www.w3.org/2000/svg">
<path fill-rule="evenodd" clip-rule="evenodd" d="M0.698923 11.5C0.877413 11.5 1.05641 11.4288 1.19278 11.2865L5.79544 6.48363C5.9263 6.34655 6 6.16134 6 5.96776C6 5.77418 5.9263 5.58897 5.79544 5.45189L1.25445 0.713855C0.981198 0.428715 0.538982 0.428715 0.266232 0.713855C-0.0070195 0.998996 -0.00701948 1.46097 0.266232 1.74507L4.31286 5.96776L0.204563 10.2548C-0.0681868 10.5399 -0.0681868 11.0019 0.204563 11.2865C0.340938 11.4288 0.51993 11.5 0.698923 11.5Z" fill="#65707C"/>
<mask id="mask0_1034_3556" style="mask-type:alpha" maskUnits="userSpaceOnUse" x="0" y="0" width="6" height="12">
<path fill-rule="evenodd" clip-rule="evenodd" d="M0.698923 11.5C0.877413 11.5 1.05641 11.4288 1.19278 11.2865L5.79544 6.48363C5.9263 6.34655 6 6.16134 6 5.96776C6 5.77418 5.9263 5.58897 5.79544 5.45189L1.25445 0.713855C0.981198 0.428715 0.538982 0.428715 0.266232 0.713855C-0.0070195 0.998996 -0.00701948 1.46097 0.266232 1.74507L4.31286 5.96776L0.204563 10.2548C-0.0681868 10.5399 -0.0681868 11.0019 0.204563 11.2865C0.340938 11.4288 0.51993 11.5 0.698923 11.5Z" fill="white"/>
</mask>
<g mask="url(#mask0_1034_3556)">
<rect y="0.5" width="6" height="11" fill="#65707C"/>
</g>
</svg>
