<svg width="20" height="20" viewBox="0 0 20 20" fill="none" xmlns="http://www.w3.org/2000/svg">
<path d="M10.0002 6C13.5135 6 17.0272 8.86302 17.0272 11C17.0272 13.137 13.5135 16 10.0002 16C6.48685 16 2.97314 13.137 2.97314 11C2.97314 8.86302 6.48685 6 10.0002 6ZM10.0002 7.21622C7.10993 7.21622 4.18936 9.59594 4.18936 11C4.18936 12.4041 7.10993 14.7838 10.0002 14.7838C12.8904 14.7838 15.811 12.4041 15.811 11C15.811 9.59594 12.8904 7.21622 10.0002 7.21622ZM10.0002 8.7027C11.2689 8.7027 12.2975 9.73124 12.2975 11C12.2975 12.2688 11.2689 13.2973 10.0002 13.2973C8.73141 13.2973 7.70287 12.2688 7.70287 11C7.70287 9.73124 8.73141 8.7027 10.0002 8.7027ZM10.0002 9.91892C9.40311 9.91892 8.91909 10.4029 8.91909 11C8.91909 11.5971 9.40311 12.0811 10.0002 12.0811C10.5972 12.0811 11.0813 11.5971 11.0813 11C11.0813 10.4029 10.5972 9.91892 10.0002 9.91892Z" fill="#A3B4CA"/>
</svg>
