<svg width="20" height="24" viewBox="0 0 20 24" fill="none" xmlns="http://www.w3.org/2000/svg">
<path d="M3.33333 0C2.44928 0 1.60143 0.316071 0.976311 0.87868C0.351189 1.44129 0 2.20435 0 3V21C0 21.7956 0.351189 22.5587 0.976311 23.1213C1.60143 23.6839 2.44928 24 3.33333 24H16.6667C17.5507 24 18.3986 23.6839 19.0237 23.1213C19.6488 22.5587 20 21.7956 20 21V3C20 2.20435 19.6488 1.44129 19.0237 0.87868C18.3986 0.316071 17.5507 0 16.6667 0L3.33333 0ZM3.33333 1.5H16.6667C17.1087 1.5 17.5326 1.65804 17.8452 1.93934C18.1577 2.22064 18.3333 2.60218 18.3333 3V21C18.3333 21.3978 18.1577 21.7794 17.8452 22.0607C17.5326 22.342 17.1087 22.5 16.6667 22.5H3.33333C2.89131 22.5 2.46738 22.342 2.15482 22.0607C1.84226 21.7794 1.66667 21.3978 1.66667 21V3C1.66667 2.60218 1.84226 2.22064 2.15482 1.93934C2.46738 1.65804 2.89131 1.5 3.33333 1.5Z" fill="#707070"/>
<path d="M4.33826 18.1305C4.01341 18.0136 3.75169 17.7877 3.60826 17.5005C3.28326 16.9185 3.39159 16.3365 3.74159 15.8475C4.07159 15.387 4.61826 14.9955 5.23659 14.667C6.01982 14.2672 6.84774 13.9429 7.70659 13.6995C8.37356 12.6204 8.96472 11.5047 9.47659 10.359C9.17055 9.73314 8.93061 9.08278 8.75992 8.41648C8.61659 7.81648 8.56159 7.22248 8.68326 6.71248C8.80826 6.18148 9.13992 5.70448 9.76659 5.47798C10.0866 5.36248 10.4333 5.29798 10.7699 5.36248C10.9393 5.39493 11.0985 5.4609 11.236 5.55559C11.3735 5.65029 11.4859 5.77135 11.5649 5.90998C11.7116 6.15598 11.7649 6.44398 11.7766 6.71698C11.7883 6.99748 11.7566 7.30948 11.6983 7.63798C11.5583 8.40298 11.2483 9.33898 10.8316 10.329C11.2914 11.214 11.838 12.0604 12.4649 12.858C13.2068 12.8053 13.9529 12.8304 14.6883 12.933C15.2949 13.0305 15.9116 13.2255 16.2883 13.6305C16.4883 13.8465 16.6099 14.1105 16.6216 14.4075C16.6333 14.6955 16.5433 14.9805 16.3916 15.252C16.2602 15.5036 16.0565 15.719 15.8016 15.876C15.5496 16.0239 15.2521 16.0964 14.9516 16.083C14.3999 16.062 13.8616 15.789 13.3966 15.4575C12.8312 15.0367 12.3217 14.5585 11.8783 14.0325C10.7512 14.1475 9.63746 14.3513 8.54992 14.6415C8.05133 15.4365 7.48226 16.1939 6.84826 16.9065C6.36492 17.4315 5.83492 17.889 5.30492 18.087C5.0004 18.211 4.655 18.2265 4.33826 18.1305ZM6.63659 15.279C6.35992 15.393 6.10326 15.513 5.87159 15.636C5.32492 15.927 4.96992 16.2105 4.79326 16.4565C4.63659 16.674 4.63326 16.8315 4.72659 16.998C4.74326 17.031 4.75992 17.052 4.76992 17.064C4.7898 17.0592 4.80929 17.0532 4.82826 17.046C5.05659 16.962 5.41992 16.6935 5.88659 16.188C6.152 15.8955 6.40226 15.5922 6.63659 15.279ZM9.36992 13.284C9.92644 13.167 10.488 13.0704 11.0533 12.9945C10.7497 12.5766 10.4661 12.1472 10.2033 11.7075C9.94189 12.2394 9.664 12.7646 9.36992 13.2825V13.284ZM13.4466 13.959C13.6966 14.202 13.9399 14.409 14.1716 14.574C14.5716 14.859 14.8499 14.9535 15.0016 14.958C15.0422 14.9628 15.0834 14.9548 15.1183 14.9355C15.1876 14.8862 15.2416 14.8216 15.2749 14.748C15.3342 14.6566 15.3679 14.5537 15.3733 14.448C15.3723 14.4127 15.3569 14.3791 15.3299 14.3535C15.2433 14.2605 14.9966 14.1255 14.4666 14.04C14.1295 13.9893 13.7884 13.9627 13.4466 13.9605V13.959ZM10.1299 8.69998C10.2702 8.29277 10.3815 7.87793 10.4633 7.45798C10.5149 7.17598 10.5349 6.94348 10.5266 6.76048C10.5271 6.65952 10.509 6.55918 10.4733 6.46348C10.3899 6.47277 10.3085 6.49299 10.2316 6.52348C10.0866 6.57598 9.96826 6.68248 9.90492 6.94798C9.83826 7.23598 9.85492 7.65148 9.98159 8.18098C10.0216 8.34748 10.0716 8.52148 10.1316 8.69998H10.1299Z" fill="#707070"/>
</svg>
